<?xml version="1.0" encoding="utf-8"?>
<!-- Generator: Adobe Illustrator 23.0.1, SVG Export Plug-In . SVG Version: 6.00 Build 0)  -->
<svg version="1.1" id="Livello_1" xmlns="http://www.w3.org/2000/svg" xmlns:xlink="http://www.w3.org/1999/xlink" x="0px" y="0px"
	 width="270px" height="74.6649017px" viewBox="0 0 270 74.6649017" style="enable-background:new 0 0 270 74.6649017;"
	 xml:space="preserve">
<style type="text/css">
	.st0{fill:#000000;}
</style>
<g>
	<path class="st0" d="M162.6775818,31.9548779c0-7.5980492,5.2914886-11.6684322,11.1257019-11.6684322
		c3.120636,0,6.1055756,0.9497566,7.8694,2.0351925l-1.4924774,5.5628567h-0.1356812
		c-1.7638397-5.2914963-2.8492889-7.1910095-6.2412567-7.1910095c-3.5276642,0-7.4623718,2.8492661-7.4623718,10.4473133
		c0,6.5126095,3.7990265,10.3116398,8.0050964,10.3116398c2.9849396,0,6.2412567-1.0854378,7.7337189-5.9698944h0.1356964
		c-0.5427246,4.7487755-3.7990417,8.547802-8.8191681,8.547802
		C167.2906647,44.0303459,162.6775818,39.4172478,162.6775818,31.9548779z"/>
	<path class="st0" d="M196.8687897,41.1810799l2.1708832-2.984951h0.1356812l-1.085434,5.4271774h-13.9749908v-0.1356812
		c1.3567963-0.1356773,2.1708832-0.542717,2.1708832-2.1708679V27.477457c0-1.6281548-0.8140869-2.0351906-2.1708832-2.1708698
		v-0.1356812h13.432251l1.0854492,5.155817h-0.1357117l-2.1708527-2.7135887
		c-0.9497681-1.2211132-1.6281586-2.1708698-2.9849548-2.1708698h-4.3417511v8.2764435h2.9849548
		c2.4422302,0,3.120636-1.2211151,3.391983-2.9849472h0.1356964v6.3769302h-0.1356964
		c-0.271347-1.7638321-0.9497528-2.9849472-3.391983-2.9849472h-2.9849548v9.2262001h4.8844757
		C195.2406311,43.3519478,195.9190369,42.402195,196.8687897,41.1810799z"/>
	<path class="st0" d="M201.4818726,34.2614288c0-5.9698944,4.2060699-9.3618793,8.8191528-9.3618793
		c2.4422455,0,4.8844757,0.6783962,6.241272,1.6281528l-1.2210999,4.4774208h-0.1356964
		c-1.4924774-4.2060623-2.1708832-5.6985359-5.0201416-5.6985359c-2.7135773,0-5.9698792,2.3065491-5.9698792,8.2764435
		c0,5.2914963,2.9849548,8.2764473,6.3769226,8.2764473c2.4422455,0,5.0201416-0.8140793,6.1055908-4.7487793h0.1356812
		c-0.4070435,3.7990189-2.9849548,6.7839699-7.0553284,6.7839699
		C205.1452332,43.8946686,201.4818726,40.2313194,201.4818726,34.2614288z"/>
	<path class="st0" d="M218.8488464,43.6233063v-0.1356812c1.356781-0.1356773,2.1708679-0.542717,2.1708679-2.1708679V27.477457
		c0-1.6281548-0.8140869-2.0351906-2.1708679-2.1708698v-0.1356812h7.0553284v0.1356812
		c-1.3567963,0.1356792-2.1708832,0.5427151-2.1708832,2.1708698v13.8393002c0,1.6281509,0.8140869,2.0351906,2.1708832,2.1708679
		v0.1356812H218.8488464z"/>
	<path class="st0" d="M239.065094,41.1810799l2.3065491-3.7990265h0.1356812l-0.9497528,6.3769341h-13.025238v-0.1356773
		c1.3567963-0.1356773,2.1708832-0.542717,2.1708832-2.1708679V27.477457c0-1.6281548-0.8140869-2.0351906-2.1708832-2.1708698
		v-0.1356812h7.0553284v0.1356812c-1.3567963,0.1356792-2.1708832,0.5427151-2.1708832,2.1708698v15.8744907h3.7990265
		C237.4369202,43.3519478,238.2510071,42.5378761,239.065094,41.1810799z"/>
	<path class="st0" d="M242.9997711,43.6233063v-0.1356812c1.3567963-0.1356773,2.1708832-0.542717,2.1708832-2.1708679V27.477457
		c0-1.6281548-0.8140869-2.0351906-2.1708832-2.1708698v-0.1356812h7.0553436v0.1356812
		c-1.3567963,0.1356792-2.1708832,0.5427151-2.1708832,2.1708698v13.8393002c0,1.6281509,0.8140869,2.0351906,2.1708832,2.1708679
		v0.1356812H242.9997711z"/>
	<path class="st0" d="M261.7235413,43.6233063v-0.1356812c1.0854492-0.1356773,2.3065491-0.8140755,1.763855-2.1708679
		l-1.2211304-3.527668h-7.4623566l-0.9497375,2.5779076c-0.9497681,2.4422302,0.1356812,2.984951,1.356781,3.1206284v0.1356812
		h-4.7487793v-0.1356812c1.2211151-0.1356773,2.1708832-0.8140755,2.9849548-3.2563057l4.8844452-13.2965794
		c-0.4070435-1.2211132-0.8140564-1.7638321-2.0351868-1.7638321l0,0v-0.1356792h4.2060547l5.8342285,16.1458511
		c0.5427246,1.3567963,0.9497681,2.0351906,2.5779114,2.1708679v0.2713585H261.7235413z M262.2662659,37.5177307
		l-3.5276794-9.9045944l-3.6633453,9.9045944H262.2662659z"/>
</g>
<path class="st0" d="M99.586647,43.8946686v-0.1356812c1.085434-0.1356773,2.3065414-0.8140755,1.7638321-2.1708679
	l-1.2211075-3.527668h-7.4623718l-0.9497528,2.5779076c-0.9497528,2.4422302,0.1356735,2.9849472,1.3567963,3.1206284v0.1356812
	h-4.7487869v-0.1356812c1.2211075-0.1356773,2.1708603-0.8140755,2.9849396-3.2563057l4.8844528-13.2965832
	c-0.4070435-1.2211132-0.8140717-1.7638302-2.0351944-1.7638302l0,0v-0.1356792h4.2060699l5.8342209,16.1458492
	c0.542717,1.3567924,0.9497452,2.0351906,2.5779037,2.1708679v0.1356773H99.586647V43.8946686z M99.9936752,37.789093
	l-3.5276566-10.0402775l-3.6633453,9.9045925h7.1910019V37.789093z"/>
<path class="st0" d="M121.0239944,43.8946686L109.8982849,28.020174v12.4825077c0,2.4422264,0.814064,3.1206245,2.1708603,3.2563057
	v0.1356812h-4.7487793v-0.1356812c1.3567963-0.1356773,2.1708755-0.8140755,2.1708755-3.2563057V27.6131401l-0.5427246-0.6783962
	c-0.542717-0.8140793-1.2211151-1.2211151-1.8995132-1.3567944v-0.1356812h4.2060547l10.0402985,14.1106567V28.8342514
	c0-2.4422283-0.8140793-3.1206245-2.1708755-3.2563057v-0.1356792h4.7487793v0.1356792
	c-1.3567963,0.1356812-2.1708603,0.8140774-2.1708603,3.2563057v15.0604172H121.0239944z"/>
<path class="st0" d="M129.4361267,43.8946686v-0.1356812c1.356781-0.1356773,2.1708527-0.542717,2.1708527-2.1708679V25.713623
	h-2.1708527c-1.0854492,0-1.492485,0.9497585-2.3065491,2.1708717l-2.0351944,3.1206245h-0.1356812l0.8140793-5.6985321h14.2463379
	l0.8140717,5.6985359h-0.1356812l-2.0351868-3.1206264c-0.8140717-1.2211132-1.3567963-2.1708698-2.3065491-2.1708698h-2.0351868
	v15.8744888c0,1.6281548,0.8140717,2.0351906,2.1708679,2.1708679v0.1356773
	C136.4914551,43.8946609,129.4361267,43.8946609,129.4361267,43.8946686z"/>
<path class="st0" d="M150.1950684,43.8946686v-0.1356812c1.085434-0.1356773,2.3065491-0.8140755,1.7638245-2.1708679
	l-1.2211151-3.527668h-7.4623566l-0.9497528,2.5779076c-0.9497681,2.4422302,0.1356659,2.9849472,1.3567963,3.1206284v0.1356812
	h-4.7487793v-0.1356812c1.2211151-0.1356773,2.1708527-0.8140755,2.9849396-3.2563057l4.8844452-13.2965832
	c-0.4070435-1.2211132-0.8140717-1.7638302-2.0351715-1.7638302l0,0v-0.1356792h4.2060394l5.8342285,16.1458492
	c0.5427246,1.3567924,0.9497375,2.0351906,2.5778961,2.1708679v0.1356773h-7.1909943V43.8946686z M150.7377777,37.789093
	l-3.5276642-9.9045963l-3.6633301,9.9045963H150.7377777z"/>
<path class="st0" d="M81.2699203,30.7337627l-4.0703812-1.2211132c-3.3919907-0.9497585-4.2060547-2.5779095-4.2060547-4.6131001
	c0-2.4422283,1.8995056-4.0703831,5.020134-4.0703831c3.5276642,0,4.7487793,1.4924736,7.0553284,6.7839699h0.1356735
	l0.1356812-7.1910095c-2.0351868,0-4.3417435,0-7.326683,0c-3.663353,0-7.7337341,2.1708717-7.7337341,5.9698963
	c0,2.849268,1.7638321,5.155817,5.4271774,6.2412548l4.2060623,1.2211113
	c2.9849472,0.8140793,4.3417358,2.4422302,4.3417358,5.0201416c0,2.3065491-1.3567886,5.0201378-4.8844528,5.0201378
	c-3.7990265,0-5.5628586-1.6281548-8.8191605-8.0050888h-0.1356735l-0.1356812,8.4121246h0.1356812h0.6783905
	c0,0,1.8995209,0,4.477417,0c1.2211227,0,2.4422379,0,3.7990265,0c4.477417,0,7.8694077-2.9849472,7.8694077-7.0553322
	C87.1041336,34.2614288,85.2046204,31.9548779,81.2699203,30.7337627z"/>
<g>
	<g>
		<path class="st0" d="M70.1442108,55.0203819c0-2.3065529,1.6281509-3.5276642,3.391983-3.5276642
			c0.9497528,0,1.8995132,0.2713585,2.4422302,0.6783981l-0.4070435,1.7638283l0,0
			c-0.6783981-1.7638283-0.9497528-2.3065491-1.8995132-2.3065491s-2.0351868,0.9497566-2.0351868,3.1206245
			c0,1.8995132,1.0854263,3.1206284,2.3065491,3.1206284c0.8140717,0,1.7638321-0.2713623,2.1708679-1.6281586l0,0
			c-0.1356735,1.4924736-1.2211151,2.5779114-2.7135925,2.5779114
			C71.6366806,58.6837196,70.1442108,57.3269272,70.1442108,55.0203819z"/>
		<path class="st0" d="M73.4005127,58.6837196c-1.8995132,0-3.391983-1.4924698-3.391983-3.6633453
			c0-1.085434,0.4070435-2.0351944,1.085434-2.7135849c0.6783981-0.6783981,1.4924774-0.9497604,2.4422302-0.9497604
			s1.8995132,0.2713623,2.4422302,0.6783981l0,0l-0.5427246,1.8995132h-0.1356735l0,0
			c-0.6783981-1.7638321-0.9497604-2.1708679-1.7638321-2.1708679c-1.3567886,0-2.0351944,1.4924698-2.0351944,2.9849472
			c0,2.0351906,1.2211227,2.984951,2.3065491,2.984951c1.085434,0,1.7638321-0.5427208,2.1708755-1.6281586l0,0h0.1356735l0,0
			C75.9784241,57.5982857,74.8929825,58.6837196,73.4005127,58.6837196z M73.4005127,51.6283951
			c-1.4924698,0.1356773-3.1206207,1.2211189-3.1206207,3.5276642c0,2.0351906,1.3567886,3.5276604,3.2563019,3.5276604
			c1.2211227,0,2.1708755-0.8140717,2.577919-2.0351906c-0.4070435,0.8140755-1.0854416,1.3567963-2.1708755,1.3567963
			c-1.2211075,0-2.4422226-0.9497604-2.4422226-3.1206284C71.5009995,52.713829,72.3150864,51.6283951,73.4005127,51.6283951z
			 M73.8075485,51.6283951c0.8140793,0.1356773,1.085434,0.6783981,1.6281586,2.1708679l0.4070358-1.6281548
			C75.4357071,51.7640724,74.6216278,51.6283951,73.8075485,51.6283951z"/>
	</g>
	<g>
		<path class="st0" d="M82.3553543,55.8344574c0,1.7638283-1.085434,2.8492622-2.5779114,2.8492622
			s-2.5779037-1.085434-2.5779037-2.8492622c0-1.7638359,1.0854263-2.8492661,2.5779037-2.8492661
			S82.3553543,53.9349403,82.3553543,55.8344574z M78.2849655,55.8344574c0,2.0351906,0.5427246,2.7135887,1.4924774,2.7135887
			s1.4924698-0.8140755,1.4924698-2.7135887c0-2.0351944-0.542717-2.7135887-1.4924698-2.7135887
			S78.2849655,53.799263,78.2849655,55.8344574z"/>
		<path class="st0" d="M79.7774506,58.6837196c-1.6281509,0-2.7135849-1.2211151-2.7135849-2.984951
			c0-1.7638283,1.085434-2.9849434,2.7135849-2.9849434s2.7135925,1.2211151,2.7135925,2.9849434
			C82.3553543,57.4626083,81.4056015,58.6837196,79.7774506,58.6837196z M80.1844864,52.9851913
			c0.6783981,0.2713585,1.085434,1.2211151,1.085434,2.7135887c0,1.4924698-0.4070358,2.5779076-1.085434,2.7135849
			c1.2211151-0.1356773,2.0351944-1.2211151,2.0351944-2.7135849
			C82.2196808,54.2063065,81.4056015,53.2565422,80.1844864,52.9851913z M79.3704071,52.9851913
			c-1.2211075,0.1356773-2.0351868,1.2211151-2.0351868,2.7135887c0,1.4924698,0.8140793,2.5779076,2.0351868,2.7135849
			c-0.6783981-0.2713585-1.0854263-1.2211151-1.0854263-2.7135849
			C78.2849808,54.2063065,78.5563278,53.2565422,79.3704071,52.9851913z M79.7774506,53.1208687
			c-0.9497604,0-1.4924698,0.9497528-1.4924698,2.7135887c0,1.7638283,0.5427094,2.7135887,1.4924698,2.7135887
			c0.9497528,0,1.3567963-0.9497604,1.3567963-2.7135887C81.1342468,54.0706215,80.7272034,53.1208687,79.7774506,53.1208687z"/>
	</g>
	<g>
		<path class="st0" d="M87.3755035,58.5480461l-3.391983-4.7487831v3.6633453c0,0.6783981,0.271347,0.9497566,0.6783905,0.9497566
			l0,0h-1.3567886l0,0c0.4070358,0,0.6783981-0.2713585,0.6783981-0.9497566v-3.9347076l-0.1356812-0.2713585
			c-0.1356735-0.2713623-0.4070358-0.4070358-0.542717-0.4070358l0,0h1.4924622l2.8492737,4.0703812v-2.9849472
			c0-0.6783981-0.2713547-0.9497604-0.6783981-0.9497604l0,0h1.3567963l0,0c-0.4070435,0-0.6783981,0.2713623-0.6783981,0.9497604
			v4.6131058H87.3755035z"/>
		<path class="st0" d="M87.6468582,58.6837196h-0.2713547l-3.2563171-4.613102v3.5276642
			c0,0.6783943,0.2713623,0.8140717,0.5427246,0.9497528l0,0v0.1356812h-1.4924698v-0.1356812l0,0
			c0.4070358,0,0.5427246-0.2713585,0.5427246-0.9497528v-3.7990227l-0.1356812-0.2713623
			c-0.1356812-0.1356773-0.2713623-0.2713585-0.542717-0.4070358l0,0v-0.1356812h1.6281433l2.7135925,3.7990265v-2.7135887
			c0-0.6783981-0.2713623-0.8140755-0.5427246-0.9497566l0,0v-0.1356812h1.4924774v0.1356888l0,0
			c-0.4070435,0-0.5427246,0.2713547-0.5427246,0.9497528v4.6130981H87.6468582z M87.3755035,58.5480461L87.3755035,58.5480461
			l0.1356735-1.3567963l-2.8492661-4.0703812h-1.2211151c0.1356812,0.1356735,0.2713623,0.1356735,0.4070282,0.2713547
			l0.2713623,0.4070396L87.3755035,58.5480461z M83.5764771,58.5480461h0.6783905
			c-0.2713623-0.1356812-0.2713623-0.2713623-0.4070435-0.6783981
			C83.8478241,58.1410065,83.7121429,58.412365,83.5764771,58.5480461z M87.1041336,52.9851913
			c0.1356812,0.1356773,0.2713547,0.2713585,0.4070435,0.6783943c0-0.2713623,0.1356812-0.542717,0.4070435-0.6783943H87.1041336z"
			/>
	</g>
	<g>
		<path class="st0" d="M89.1393204,56.5128517L89.1393204,56.5128517c0.9497528,1.4924736,1.3567963,1.8995132,2.1708755,1.8995132
			c0.8140717,0,1.0854416-0.542717,1.0854416-1.2211151c0-0.5427208-0.2713623-0.9497604-0.9497528-1.0854378l-0.9497604-0.2713547
			c-0.814064-0.2713623-1.3567886-0.8140755-1.3567886-1.4924736c0-0.9497604,0.9497528-1.4924698,1.8995132-1.4924698
			c0.8140717,0,1.3567963,0.1356773,1.8995132,0.4070358l-0.1356735,1.4924698l0,0
			c-0.6783981-1.3567963-0.9497528-1.6281509-1.7638397-1.6281509c-0.6783981,0-1.2211227,0.407032-1.2211227,0.9497528
			s0.2713623,0.8140755,0.9497604,1.0854378l0.9497528,0.2713585c0.9497528,0.2713623,1.4924698,0.8140717,1.4924698,1.6281548
			c0,0.9497566-0.8140717,1.7638283-1.8995132,1.7638283c-0.8140793,0-1.4924774-0.2713547-2.3065414-0.542717
			L89.1393204,56.5128517z"/>
		<path class="st0" d="M91.3101959,58.6837196c-0.8140793,0-1.4924774-0.1356735-2.3065414-0.542717l0,0l0.1356659-1.6281586
			h0.1356812l0,0c0.8140717,1.4924774,1.2211151,1.8995132,2.0351944,1.8995132c0.8140717,0,1.0854416-0.542717,1.0854416-1.0854301
			c0-0.5427208-0.2713623-0.9497604-0.9497528-1.0854378l-0.9497604-0.2713585
			c-0.814064-0.2713623-1.3567886-0.8140717-1.3567886-1.6281548c0-1.085434,0.9497528-1.6281509,2.0351868-1.6281509
			c0.6783981,0,1.3567963,0.1356735,2.0351944,0.4070358l0,0l-0.1356735,1.4924736h-0.1356812l0,0
			c-0.6783981-1.3567963-0.9497528-1.6281586-1.6281509-1.6281586s-1.0854416,0.2713623-1.0854416,0.8140755
			c0,0.5427208,0.2713547,0.8140755,0.9497528,0.9497604l0.9497528,0.2713585
			c0.9497604,0.2713623,1.4924774,0.8140717,1.4924774,1.6281548C93.3453903,58.0053253,92.531311,58.6837196,91.3101959,58.6837196
			z M89.1393204,58.0053253c0.5427246,0.2713585,1.0854416,0.5427208,1.6281509,0.5427208
			c-0.542717-0.1356812-0.9497528-0.6783981-1.6281509-1.7638359V58.0053253z M90.3604431,53.1208687
			c-0.6783981,0.1356735-1.2211227,0.6783943-1.2211227,1.3567924s0.4070435,1.2211189,1.2211227,1.4924698l0.9497528,0.2713585
			c0.6783981,0.1356773,1.0854416,0.5427208,1.0854416,1.2211189c0,0.4070396-0.1356812,0.9497566-0.6783981,1.0854378
			c0.8140717-0.1356812,1.3567963-0.8140755,1.3567963-1.6281586c0-0.6783981-0.5427246-1.2211189-1.3567963-1.4924698
			l-0.9497528-0.2713585c-0.6783981-0.1356773-0.9497604-0.5427208-0.9497604-1.0854378
			C89.8177185,53.5279007,90.0890884,53.2565422,90.3604431,53.1208687z M91.5815582,52.9851913
			c0.542717,0.1356773,0.8140793,0.5427208,1.3567963,1.4924698l0.1356812-1.2211189
			C92.531311,53.1208687,91.9885941,52.9851913,91.5815582,52.9851913z"/>
	</g>
	<g>
		<path class="st0" d="M97.9584885,57.869648l0.6783981-0.9497604l0,0l-0.1356812,1.6281586h-4.3417358l0,0
			c0.4070435,0,0.6783905-0.1356812,0.6783905-0.6783981v-4.2060623c0-0.542717-0.271347-0.6783943-0.6783905-0.6783943l0,0
			h4.2060623l0.2713547,1.6281509l0,0l-0.8140717-0.8140793c-0.2713623-0.4070396-0.5427246-0.6783943-0.9497604-0.6783943
			h-1.2211151v2.4422264h0.8140793c0.6783981,0,0.9497528-0.4070358,0.9497528-0.9497566l0,0v2.0351906l0,0
			c-0.1356812-0.5427208-0.2713547-0.9497604-0.9497528-0.9497604h-0.8140793v2.8492661h1.3567963
			C97.5514526,58.412365,97.6871338,58.1410065,97.9584885,57.869648z"/>
		<path class="st0" d="M98.5012054,58.6837196h-4.477417v-0.1356735l0,0c0.4070435,0,0.5427094-0.1356812,0.5427094-0.5427208
			V53.799263c0-0.4070396-0.271347-0.5427208-0.5427094-0.5427208l0,0v-0.1356735h4.3417358l0.2713547,1.7638283h-0.1356812
			l-0.8140717-0.9497566c-0.2713547-0.2713623-0.4070435-0.5427208-0.8140793-0.5427208h-1.0854416v2.3065491h0.8140793
			c0.6783981,0,0.8140717-0.2713547,0.9497528-0.8140717l0,0h0.2713776v2.1708679h-0.1356812l0,0
			c-0.1356812-0.5427208-0.2713547-0.9497566-0.9497528-0.9497566h-0.8140793v2.7135887h1.2211227
			c0.4070435,0,0.542717-0.2713623,0.8140717-0.6783943l0,0l0.8140793-0.9497604h0.1356735L98.5012054,58.6837196z
			 M97.4157715,58.5480461h1.085434l0.2713623-1.4924736l-0.6783981,0.8140755
			C97.8228149,58.1410065,97.6871338,58.412365,97.4157715,58.5480461z M94.5664978,58.5480461h1.2211227v-5.4271774h-1.2211227
			c0.1356812,0.1356735,0.2713547,0.2713547,0.2713547,0.6783943v4.2060623
			C94.8378601,58.2766838,94.702179,58.412365,94.5664978,58.5480461z M96.8730545,55.5630951
			c0.4070435,0,0.5427246,0.2713623,0.6783981,0.542717V54.884697
			C97.5514526,55.2917366,97.2800903,55.5630951,96.8730545,55.5630951z M97.1444168,52.9851913
			c0.2713547,0.1356773,0.4070358,0.2713585,0.6783981,0.5427208l0.1356735,0.1356735l0.542717,0.6783981l-0.2713547-1.3567924
			H97.1444168z"/>
	</g>
	<g>
		<path class="st0" d="M99.586647,58.5480461L99.586647,58.5480461c0.4070435-0.1356812,0.6783905-0.2713623,0.6783905-0.6783981
			v-4.2060623c0-0.542717-0.271347-0.6783943-0.6783905-0.6783943l0,0h2.7135849
			c1.2211227,0,2.1708755,0.5427208,2.1708755,1.4924698c0,0.9497566-0.8140793,1.4924698-2.0351944,1.4924698h-0.4070435
			l1.0854416,0.2713585l1.0854416,1.7638359c0.1356735,0.2713585,0.4070435,0.5427208,0.8140717,0.6783943l0,0h-1.6281509
			l-1.492485-2.8492622h-0.6783981v2.0351906c0,0.542717,0.2713623,0.6783981,0.5427246,0.6783981l0,0H99.586647z
			 M101.2147903,53.1208687v2.7135887h0.9497604c0.8140717,0,1.3567963-0.4070396,1.3567963-1.3567963
			c0-0.9497604-0.5427246-1.3567924-1.3567963-1.3567924H101.2147903z"/>
		<path class="st0" d="M105.0138245,58.6837196h-1.7638397l-1.4924698-2.7135887h-0.5427246v1.8995171
			c0,0.4070358,0.2713623,0.542717,0.5427246,0.542717l0,0v0.1356812h-2.4422302V58.412365l0,0
			c0.4070435,0,0.5427094-0.1356773,0.5427094-0.542717v-4.2060623c0-0.4070358-0.271347-0.542717-0.5427094-0.542717l0,0
			v-0.1356773h2.8492661c1.3567963,0,2.1708679,0.5427208,2.1708679,1.4924698c0,0.8140755-0.8140717,1.4924698-1.8995132,1.4924698
			l0.542717,0.1356773l1.0854416,1.7638321c0.2713547,0.4070358,0.4070435,0.542717,0.814064,0.542717l0,0v0.2713623H105.0138245z
			 M103.3856659,58.5480461h1.2211151c-0.2713547-0.1356812-0.4070358-0.2713623-0.542717-0.5427208l-0.9497528-1.7638359
			l-1.0854416-0.2713585L103.3856659,58.5480461z M99.9936752,58.5480461h1.4924774
			c-0.1356812-0.1356812-0.2713623-0.2713623-0.2713623-0.6783981v-4.7487793h-1.2211151
			c0.1356812,0.1356735,0.2713547,0.2713547,0.2713547,0.6783943v4.2060623
			C100.2650375,58.2766838,100.1293564,58.412365,99.9936752,58.5480461z M102.5715866,53.1208687
			c0.6783981,0.1356735,0.9497604,0.542717,0.9497604,1.3567924s-0.4070435,1.2211189-0.9497604,1.3567963
			c1.0854416,0,1.8995209-0.5427208,1.8995209-1.3567963S103.6570282,53.1208687,102.5715866,53.1208687z M101.3504715,55.6987801
			h0.8140793c0.8140717,0,1.2211151-0.4070396,1.2211151-1.2211189c0-1.0854378-0.6783981-1.2211189-1.2211151-1.2211189h-0.8140793
			V55.6987801z"/>
	</g>
	<g>
		<path class="st0" d="M107.7274094,58.6837196l-2.1708603-5.0201416c-0.1356812-0.4070358-0.2713547-0.6783981-0.8140793-0.6783981
			l0,0h2.5778961l0,0c-0.2713547,0-0.6783981,0.2713623-0.542717,0.6783981l1.4924698,3.5276642l1.3567963-3.2563057
			c0.2713623-0.8140755,0-0.9497604-0.4070358-0.9497604l0,0h1.3567886l0,0c-0.4070435,0-0.6783905,0.2713623-0.9497528,0.9497604
			L107.7274094,58.6837196L107.7274094,58.6837196z"/>
		<path class="st0" d="M107.8630905,58.6837196L107.8630905,58.6837196h-0.1356812l-2.1708603-5.0201416
			c-0.1356812-0.4070358-0.2713547-0.542717-0.6783981-0.6783981l0,0v-0.1356735h2.442215v0.2713623l0,0
			c-0.2713547,0-0.4070435,0.1356735-0.542717,0.2713547c0,0.1356773,0,0.1356773,0,0.2713623l1.3567963,3.3919868
			l1.2211151-3.1206284c0.1356812-0.2713585,0.1356812-0.5427208,0.1356812-0.6783943
			c0-0.1356773-0.2713547-0.1356773-0.4070435-0.1356773l0,0v-0.1356773h1.4924698v0.1356735l0,0
			c-0.2713623,0-0.5427246,0.1356735-0.8140717,0.9497528L107.8630905,58.6837196z M105.2851715,52.9851913
			c0.1356812,0.1356773,0.2713547,0.2713585,0.4070435,0.5427208l2.0351944,4.8844528l0.4070435-1.085434l-1.4924698-3.6633453
			c-0.1356812-0.1356735-0.1356812-0.2713623,0-0.4070358c0-0.1356773,0.1356735-0.1356773,0.2713547-0.2713585H105.2851715z
			 M109.626915,52.9851913l0.1356812,0.1356773c0.1356812,0.1356735,0.1356812,0.2713547,0,0.542717
			c0.1356812-0.2713623,0.271347-0.542717,0.5427094-0.6783943H109.626915z"/>
	</g>
	<g>
		<path class="st0" d="M113.1545868,58.5480461L113.1545868,58.5480461
			c0.2713547-0.1356812,0.6783981-0.2713623,0.5427246-0.6783981l-0.4070435-0.9497604h-2.1708755l-0.271347,0.6783981
			c-0.2713547,0.8140717,0,0.9497604,0.4070435,0.9497604l0,0h-1.4924774l0,0c0.4070435,0,0.6783981-0.2713623,0.9497528-0.9497604
			l1.4924698-3.9347076c-0.1356812-0.4070358-0.2713547-0.6783981-0.6783981-0.6783981l0,0l0,0h1.4924774l1.7638321,4.8844604
			c0.1356812,0.4070358,0.2713623,0.6783943,0.8140793,0.6783943l0,0
			C115.5968246,58.5480347,113.1545868,58.5480347,113.1545868,58.5480461z M113.2902679,56.7842102l-1.0854416-2.9849472
			l-1.0854416,2.9849472H113.2902679z"/>
		<path class="st0" d="M115.7324829,58.6837196h-2.5779037v-0.1356735l0,0c0.2713547,0,0.4070435-0.1356812,0.4070435-0.2713623
			c0-0.1356773,0-0.1356773,0-0.2713585l-0.4070435-0.9497604h-2.1708755l-0.2713547,0.6783981
			c-0.1356659,0.2713623-0.1356659,0.5427208,0,0.6783943c0,0.1356773,0.1356812,0.1356773,0.4070435,0.1356773l0,0v0.1356812
			h-1.6281433v-0.1356812l0,0c0.2713547,0,0.542717-0.1356773,0.8140793-0.9497528l1.4924622-3.7990227
			c-0.1356735-0.4070396-0.2713547-0.5427208-0.542717-0.5427208h-0.1356812v-0.1356773v-0.1356812h1.6281509l1.7638397,4.8844604
			c0.1356812,0.4070358,0.2713547,0.542717,0.6783981,0.542717l0,0v0.2713623H115.7324829z M113.5616226,58.5480461h1.6281509
			c-0.2713547-0.1356812-0.2713547-0.2713623-0.4070435-0.5427208l-1.7638397-4.8844566h-1.0854416
			c0.1356812,0.1356735,0.2713547,0.2713547,0.4070435,0.542717l0,0l1.4924774,4.2060623c0,0.1356773,0,0.2713585,0,0.4070358
			C113.6972961,58.412365,113.6972961,58.412365,113.5616226,58.5480461z M110.1696396,58.5480461h0.6783905l-0.1356812-0.1356812
			c-0.1356659-0.1356773-0.1356659-0.2713585,0-0.542717C110.576683,58.1410065,110.3053055,58.412365,110.1696396,58.5480461z
			 M111.2550735,56.6485291h1.8995132l-0.9497528-2.7135887L111.2550735,56.6485291z"/>
	</g>
	<g>
		<path class="st0" d="M116.5465698,58.5480461L116.5465698,58.5480461
			c0.4070435-0.1356812,0.6783981-0.2713623,0.6783981-0.6783981v-4.7487793h-0.542717
			c-0.2713623,0-0.4070435,0.2713547-0.6783905,0.6783943l-0.6783981,1.085434l0,0l0.2713547-1.7638283h4.4774246
			l0.2713547,1.7638283l0,0l-0.8140793-1.085434c-0.2713547-0.4070396-0.4070435-0.6783943-0.6783981-0.6783943h-0.6783981
			v4.7487793c0,0.542717,0.2713547,0.6783981,0.6783981,0.6783981l0,0H116.5465698z"/>
		<path class="st0" d="M118.9888,58.6837196h-2.4422379v-0.1356735l0,0c0.4070435,0,0.542717-0.1356812,0.542717-0.5427208
			v-4.8844566h-0.542717c-0.2713547,0-0.4070435,0.2713547-0.5427246,0.542717l-0.6783981,1.085434h-0.1356659l0.271347-1.8995132
			h4.6131058l0.271347,1.8995132h-0.1356659l-0.8140793-1.2211189c-0.1356735-0.2713585-0.2713547-0.5427208-0.542717-0.5427208
			h-0.5427246v4.7487831c0,0.4070396,0.2713623,0.5427208,0.5427246,0.5427208l0,0v0.4070358H118.9888z M116.9536057,58.5480461
			h1.4924698c-0.1356735-0.1356812-0.2713547-0.2713623-0.2713547-0.6783981v-4.7487793h-0.8140717v4.7487793
			C117.3606491,58.2766838,117.224968,58.412365,116.9536057,58.5480461z M115.596817,52.9851913l-0.2713547,1.4924698
			l0.542717-0.9497604c0.1356812-0.2713585,0.271347-0.5427208,0.5427094-0.5427208
			C116.4108887,52.9851799,115.596817,52.9851799,115.596817,52.9851913z M118.9888,52.9851913
			c0.2713547,0.1356773,0.2713547,0.2713585,0.542717,0.5427208l0.6783981,0.9497528l-0.2713547-1.4924698
			C119.9385605,52.9851952,118.9888,52.9851952,118.9888,52.9851913z"/>
	</g>
	<g>
		<path class="st0" d="M126.1798096,55.8344574c0,1.7638283-1.085434,2.8492622-2.5779114,2.8492622
			c-1.4924698,0-2.5779037-1.085434-2.5779037-2.8492622c0-1.7638359,1.085434-2.8492661,2.5779037-2.8492661
			C124.9586945,52.8495064,126.1798096,53.9349403,126.1798096,55.8344574z M121.9737473,55.8344574
			c0,2.0351906,0.542717,2.7135887,1.4924698,2.7135887c0.9497604,0,1.4924774-0.8140755,1.4924774-2.7135887
			c0-2.0351944-0.542717-2.7135887-1.4924774-2.7135887C122.5164642,53.1208687,121.9737473,53.799263,121.9737473,55.8344574z"/>
		<path class="st0" d="M123.466217,58.6837196c-1.6281509,0-2.7135773-1.2211151-2.7135773-2.984951
			c0-1.7638283,1.0854263-2.9849434,2.7135773-2.9849434c1.6281586,0,2.7135925,1.2211151,2.7135925,2.9849434
			C126.1798096,57.4626083,125.0943756,58.6837196,123.466217,58.6837196z M124.0089417,52.9851913
			c0.6783981,0.2713585,1.0854416,1.2211151,1.0854416,2.7135887c0,1.4924698-0.4070435,2.5779076-1.0854416,2.7135849
			c1.2211151-0.1356773,2.0351944-1.2211151,2.0351944-2.7135849
			C126.044136,54.2063065,125.2300491,53.2565422,124.0089417,52.9851913z M123.0591812,52.9851913
			c-1.2211227,0.1356773-2.0351868,1.2211151-2.0351868,2.7135887c0,1.4924698,0.814064,2.5779076,2.0351868,2.7135849
			c-0.6783981-0.2713585-1.0854416-1.2211151-1.0854416-2.7135849
			C121.9737396,54.2063065,122.3807831,53.2565422,123.0591812,52.9851913z M123.466217,53.1208687
			c-0.9497528,0-1.4924698,0.9497528-1.4924698,2.7135887c0,1.7638283,0.542717,2.7135887,1.4924698,2.7135887
			c0.9497604,0,1.3567963-0.9497604,1.3567963-2.7135887C124.8230133,54.0706215,124.4159775,53.1208687,123.466217,53.1208687z"/>
	</g>
	<g>
		<path class="st0" d="M126.9938812,58.5480461L126.9938812,58.5480461
			c0.4070435-0.1356812,0.6783981-0.2713623,0.6783981-0.6783981v-4.2060623c0-0.542717-0.2713547-0.6783943-0.6783981-0.6783943
			l0,0h2.7135925c1.2211151,0,2.1708679,0.5427208,2.1708679,1.4924698c0,0.9497566-0.8140717,1.4924698-2.035202,1.4924698
			h-0.4070282l1.085434,0.2713585l1.085434,1.7638359c0.1356812,0.2713585,0.4070435,0.5427208,0.8140869,0.6783943l0,0h-1.6281586
			l-1.4924622-2.7135887h-0.6784058v2.0351944c0,0.5427208,0.2713623,0.6783943,0.5427246,0.6783943l0,0h-2.1708832V58.5480461z
			 M128.6220398,53.1208687v2.7135887h0.9497375c0.8140869,0,1.3567963-0.4070396,1.3567963-1.3567963
			c0-0.9497604-0.5427094-1.3567924-1.3567963-1.3567924H128.6220398z"/>
		<path class="st0" d="M132.4210663,58.6837196h-1.7638397l-1.4924774-2.7135887h-0.5427094v1.8995171
			c0,0.4070358,0.271347,0.542717,0.5427094,0.542717l0,0v0.1356812h-2.4422302V58.412365l0,0
			c0.4070435,0,0.542717-0.1356773,0.542717-0.542717v-4.2060623c0-0.4070358-0.2713547-0.542717-0.542717-0.542717l0,0v-0.1356773
			h2.8492584c1.3567963,0,2.1708832,0.5427208,2.1708832,1.4924698c0,0.8140755-0.8140869,1.4924698-1.8995209,1.4924698
			l0.5427246,0.1356773l1.085434,1.7638321c0.2713623,0.4070358,0.4070435,0.542717,0.8140717,0.542717l0,0v0.2713623H132.4210663z
			 M130.7929077,58.5480461h1.2211151c-0.271347-0.1356812-0.4070435-0.2713623-0.5427094-0.5427208l-1.0854492-1.7638359
			l-1.085434-0.2713585L130.7929077,58.5480461z M127.4009247,58.5480461h1.4924774
			c-0.1356812-0.1356812-0.2713623-0.2713623-0.2713623-0.6783981v-4.7487793h-1.2211151
			c0.1356735,0.1356735,0.2713547,0.2713547,0.2713547,0.6783943v4.2060623
			C127.6722794,58.2766838,127.5365982,58.412365,127.4009247,58.5480461z M129.8431396,53.1208687
			c0.6784058,0.1356735,0.9497681,0.542717,0.9497681,1.3567924s-0.4070435,1.2211189-0.9497681,1.3567963
			c1.0854492,0,1.8995209-0.5427208,1.8995209-1.3567963S131.06427,53.1208687,129.8431396,53.1208687z M128.6220398,55.6987801
			h0.8140717c0.8140717,0,1.2211151-0.4070396,1.2211151-1.2211189c0-1.0854378-0.6784058-1.2211189-1.2211151-1.2211189h-0.8140717
			V55.6987801z"/>
	</g>
	<g>
		<path class="st0" d="M132.8281097,58.5480461L132.8281097,58.5480461
			c0.4070435-0.1356812,0.6783905-0.2713623,0.6783905-0.6783981v-4.2060623c0-0.542717-0.271347-0.6783943-0.6783905-0.6783943l0,0
			h2.3065338l0,0c-0.4070435,0-0.6783905,0.1356773-0.6783905,0.6783943v4.2060623
			c0,0.542717,0.271347,0.6783981,0.6783905,0.6783981l0,0H132.8281097z"/>
		<path class="st0" d="M135.1346436,58.6837196h-2.4422302v-0.1356735l0,0c0.4070435,0,0.5427246-0.1356812,0.5427246-0.5427208
			V53.799263c0-0.4070396-0.2713623-0.5427208-0.5427246-0.5427208l0,0v-0.1356735h2.4422302l0,0l0,0
			c-0.4070435,0-0.5427246,0.1356735-0.5427246,0.542717v4.2060623c0,0.4070358,0.2713623,0.542717,0.5427246,0.542717l0,0
			V58.6837196z M133.2351379,58.5480461h1.4924622c-0.1356812-0.1356812-0.271347-0.2713623-0.271347-0.6783981v-4.2060623
			c0-0.4070358,0.1356659-0.542717,0.271347-0.6783943h-1.4924622c0.1356812,0.1356773,0.2713623,0.2713585,0.2713623,0.6783943
			v4.2060623C133.5065002,58.2766838,133.3708191,58.412365,133.2351379,58.5480461z"/>
	</g>
	<g>
		<path class="st0" d="M141.104538,55.8344574c0,1.7638283-1.085434,2.8492622-2.5778961,2.8492622
			c-1.4924774,0-2.5779266-1.085434-2.5779266-2.8492622c0-1.7638359,1.0854492-2.8492661,2.5779266-2.8492661
			C140.019104,52.9851913,141.104538,53.9349403,141.104538,55.8344574z M137.0341644,55.8344574
			c0,2.0351906,0.5427246,2.7135887,1.4924774,2.7135887s1.4924622-0.8140755,1.4924622-2.7135887
			c0-2.0351944-0.5427094-2.7135887-1.4924622-2.7135887S137.0341644,53.799263,137.0341644,55.8344574z"/>
		<path class="st0" d="M138.5266418,58.6837196c-1.6281586,0-2.7135925-1.2211151-2.7135925-2.984951
			c0-1.7638283,1.085434-2.9849434,2.7135925-2.9849434c1.6281433,0,2.7135773,1.2211151,2.7135773,2.9849434
			C141.2402191,57.4626083,140.1547852,58.6837196,138.5266418,58.6837196z M138.9336853,52.9851913
			c0.6783905,0.2713585,1.085434,1.2211151,1.085434,2.7135887c0,1.4924698-0.4070435,2.5779076-1.085434,2.7135849
			c1.2211151-0.1356773,2.0351868-1.2211151,2.0351868-2.7135849
			C140.9688721,54.2063065,140.1547852,53.2565422,138.9336853,52.9851913z M138.1195984,52.9851913
			c-1.2211304,0.1356773-2.035202,1.2211151-2.035202,2.7135887c0,1.4924698,0.8140717,2.5779076,2.035202,2.7135849
			c-0.6784058-0.2713585-1.0854492-1.2211151-1.0854492-2.7135849
			C137.0341492,54.2063065,137.3055115,53.2565422,138.1195984,52.9851913z M138.5266418,53.1208687
			c-0.9497528,0-1.4924774,0.9497528-1.4924774,2.7135887c0,1.7638283,0.5427246,2.7135887,1.4924774,2.7135887
			s1.3567963-0.9497604,1.3567963-2.7135887C139.8834381,54.0706215,139.4763947,53.1208687,138.5266418,53.1208687z"/>
	</g>
	<g>
		<path class="st0" d="M144.4965363,56.1058121L144.4965363,56.1058121c1.0854187,1.8995171,1.6281433,2.442234,2.7135773,2.442234
			c0.9497528,0,1.3567963-0.6783981,1.3567963-1.4924736c0-0.6783981-0.4070435-1.2211151-1.2211151-1.3567924l-1.2211151-0.4070396
			c-1.0854492-0.2713585-1.6281433-0.9497566-1.6281433-1.8995171c0-1.2211151,1.2210999-1.8995132,2.442215-1.8995132
			c0.9497681,0,1.7638397,0.1356812,2.4422455,0.4070396l-0.1356812,1.7638283l0,0
			c-0.8140717-1.6281509-1.2211151-2.0351868-2.1708679-2.0351868c-0.9497375,0-1.4924622,0.4070358-1.4924622,1.2211151
			c0,0.542717,0.2713623,1.085434,1.2210999,1.3567924l1.2211304,0.4070396
			c1.2211151,0.2713585,1.7638245,1.0854301,1.7638245,2.0351906c0,1.2211189-1.085434,2.1708679-2.4422302,2.1708679
			c-1.0854187,0-1.8995056-0.2713623-2.8492584-0.8140717L144.4965363,56.1058121z"/>
		<path class="st0" d="M147.2101135,58.6837196c-0.9497528,0-1.8995209-0.2713623-2.8492584-0.8140717l0,0l0.1356812-1.8995171
			h0.1356812l0,0c1.0854187,1.8995171,1.6281281,2.4422264,2.5778961,2.4422264
			c0.9497528,0,1.3567963-0.6783943,1.3567963-1.3567924s-0.4070435-1.085434-1.2211151-1.3567963l-1.2211151-0.407032
			c-1.0854492-0.2713623-1.7638245-1.0854378-1.7638245-2.0351944c0-1.2211151,1.2210999-1.8995132,2.442215-1.8995132
			c0.9497528,0,1.7638397,0.1356773,2.4422455,0.4070396l0,0l-0.2713623,1.8995094h-0.1356812l0,0
			c-0.8140717-1.6281509-1.2211151-2.0351868-2.1708679-2.0351868c-0.8140564,0-1.356781,0.4070358-1.356781,1.085434
			c0,0.6783943,0.4070435,1.085434,1.0854187,1.2211151l1.2211304,0.4070358
			c1.2211151,0.4070396,1.8995056,1.0854378,1.8995056,2.0351906
			C149.7880249,57.7339706,148.7025909,58.6837196,147.2101135,58.6837196z M144.4965363,57.869648
			c0.8140564,0.4070358,1.6281433,0.6783981,2.442215,0.6783981c-0.9497528-0.1356812-1.4924469-0.6783981-2.442215-2.3065567
			V57.869648z M146.531723,51.6283951c-0.9497681,0.1356773-1.8995056,0.8140755-1.8995056,1.7638283
			c0,0.8140755,0.5427246,1.4924736,1.6281281,1.8995171l1.2211304,0.4070396
			c0.8140717,0.2713585,1.3567963,0.6783943,1.3567963,1.4924698c0,0.6783981-0.2713623,1.3567963-1.2211304,1.4924698
			c1.2211304-0.1356735,2.035202-0.9497566,2.035202-2.1708679c0-0.9497566-0.5427246-1.6281548-1.7638397-1.8995132
			l-1.2211151-0.4070396c-0.8140869-0.2713585-1.2211304-0.6783981-1.2211304-1.3567924
			C145.4462738,52.1711082,145.8533173,51.7640724,146.531723,51.6283951z M147.2101135,51.4927101
			c0.8140717,0.1356812,1.2211151,0.5427208,1.8995209,2.0351906l0.1356812-1.6281509
			C148.5669098,51.7640724,147.8885193,51.6283951,147.2101135,51.4927101z"/>
	</g>
	<g>
		<path class="st0" d="M151.9588928,58.5480461L151.9588928,58.5480461
			c0.4070435-0.1356812,0.6784058-0.2713623,0.6784058-0.6783981v-4.7487793h-0.5427246
			c-0.271347,0-0.4070435,0.2713547-0.6783905,0.6783943l-0.6784058,1.085434l0,0l0.2713623-1.7638283h4.4774323
			l0.2713318,1.7638283l0,0l-0.6783752-1.085434c-0.2713623-0.4070396-0.4070435-0.6783943-0.6784058-0.6783943h-0.5427094
			v4.7487793c0,0.542717,0.271347,0.6783981,0.6783905,0.6783981l0,0H151.9588928z"/>
		<path class="st0" d="M154.2654572,58.6837196h-2.4422455v-0.1356735l0,0c0.4070435,0,0.5427246-0.1356812,0.5427246-0.5427208
			v-4.8844566h-0.2713623c-0.271347,0-0.4070435,0.2713547-0.5427094,0.542717l-0.6784058,1.085434h-0.1356812l0.2713623-1.8995132
			h4.6131134l0.2713318,1.8995132h-0.1356812l-0.8140564-1.2211189c-0.2713623-0.2713585-0.2713623-0.5427208-0.5427246-0.5427208
			h-0.5427094v4.7487831c0,0.4070396,0.271347,0.5427208,0.5427094,0.5427208l0,0v0.4070358H154.2654572z M152.3659363,58.5480461
			h1.4924774c-0.1356812-0.1356812-0.2713623-0.2713623-0.2713623-0.6783981v-4.7487793h-0.8140717v4.7487793
			C152.6372986,58.2766838,152.5016174,58.412365,152.3659363,58.5480461z M154.2654572,52.9851913
			c0.271347,0.1356773,0.271347,0.2713585,0.5427094,0.5427208l0.6784058,0.9497528l-0.2713623-1.4924698
			C155.21521,52.9851952,154.2654572,52.9851952,154.2654572,52.9851913z M150.8734589,52.9851913l-0.1356812,1.4924698
			l0.5427246-0.9497604c0.1356812-0.2713585,0.2713623-0.5427208,0.5427246-0.5427208
			C151.8232269,52.9851799,150.8734589,52.9851799,150.8734589,52.9851913z"/>
	</g>
	<g>
		<path class="st0" d="M158.607193,58.5480461L158.607193,58.5480461c0.271347-0.1356812,0.6783905-0.2713623,0.5427094-0.6783981
			l-0.4070435-0.9497604h-2.1708679l-0.2713318,0.6783981c-0.2713623,0.8140717,0,0.9497604,0.4070435,0.9497604l0,0h-1.4924774l0,0
			c0.4070435,0,0.6783905-0.2713623,0.9497528-0.9497604l1.4924622-3.9347076
			c-0.1356812-0.4070358-0.2713623-0.6783981-0.6784058-0.6783981l0,0l0,0h1.4924774l1.7638397,4.8844604
			c0.1356812,0.4070358,0.271347,0.6783943,0.8140717,0.6783943l0,0
			C161.0494232,58.5480347,158.607193,58.5480347,158.607193,58.5480461z M158.7428589,56.7842102l-1.085434-2.9849472
			l-1.085434,2.9849472H158.7428589z"/>
		<path class="st0" d="M161.049408,58.6837196h-2.5779114v-0.1356735l0,0c0.2713623,0,0.4070435-0.1356812,0.4070435-0.2713623
			c0-0.1356773,0-0.1356773,0-0.2713585l-0.4070435-0.9497604h-2.1708679l-0.2713623,0.6783981
			c-0.1356506,0.2713623-0.1356506,0.5427208,0,0.6783943c0,0.1356773,0.1356812,0.1356773,0.4070435,0.1356773l0,0v0.1356812
			h-1.6281281v-0.1356812l0,0c0.271347,0,0.5427246-0.1356773,0.8140717-0.9497528l1.4924622-3.7990227
			c-0.1356812-0.4070396-0.2713623-0.5427208-0.5427246-0.5427208h-0.1356812v-0.1356773v-0.1356812h1.6281586l1.7638397,4.8844604
			c0.1356812,0.4070358,0.271347,0.542717,0.6783905,0.542717l0,0v0.2713623H161.049408z M158.87854,58.5480461h1.6281586
			c-0.2713623-0.1356812-0.2713623-0.2713623-0.4070435-0.5427208l-1.7638397-4.8844566h-1.0854492
			c0.1356812,0.1356735,0.2713623,0.2713547,0.4070435,0.542717l0,0l1.4924774,4.2060623c0,0.1356773,0,0.2713585,0,0.4070358
			C159.1499023,58.412365,159.0142212,58.412365,158.87854,58.5480461z M155.6222534,58.5480461h0.6783752l-0.1356812-0.1356812
			c-0.1356812-0.1356773-0.1356812-0.2713585,0-0.542717C155.8936157,58.1410065,155.7579041,58.412365,155.6222534,58.5480461z
			 M156.7076721,56.6485291h1.8995209l-0.9497528-2.7135887L156.7076721,56.6485291z"/>
	</g>
	<g>
		<path class="st0" d="M161.999176,58.5480461L161.999176,58.5480461c0.4070435-0.1356812,0.6784058-0.2713623,0.6784058-0.6783981
			v-4.7487793h-0.5427246c-0.2713623,0-0.4070435,0.2713547-0.6784058,0.6783943l-0.6783905,1.085434l0,0l0.271347-1.7638283
			h4.4774323l0.2713623,1.7638283l0,0l-0.6784058-1.085434c-0.271347-0.4070396-0.4070435-0.6783943-0.6783905-0.6783943h-0.5427246
			v4.7487793c0,0.542717,0.2713623,0.6783981,0.6784058,0.6783981l0,0H161.999176z"/>
		<path class="st0" d="M164.3057251,58.6837196h-2.4422302v-0.1356735l0,0c0.4070435,0,0.5427094-0.1356812,0.5427094-0.5427208
			v-4.8844566h-0.5427094c-0.2713623,0-0.4070435,0.2713547-0.5427246,0.542717l-0.6783905,1.085434h-0.1356812l0.271347-1.8995132
			h4.6131134l0.2713623,1.8995132h-0.1356812l-0.8140869-1.2211189c-0.271347-0.2713585-0.271347-0.5427208-0.5427094-0.5427208
			h-0.5427246v4.7487831c0,0.4070396,0.2713623,0.5427208,0.5427246,0.5427208l0,0v0.4070358H164.3057251z M162.4062042,58.5480461
			h1.4924774c-0.1356812-0.1356812-0.271347-0.2713623-0.271347-0.6783981v-4.7487793h-0.8140869v4.7487793
			C162.6775818,58.2766838,162.5418854,58.412365,162.4062042,58.5480461z M164.3057251,52.9851913
			c0.2713623,0.1356773,0.2713623,0.2713585,0.5427246,0.5427208l0.6783905,0.9497528l-0.271347-1.4924698
			C165.2554932,52.9851952,164.3057251,52.9851952,164.3057251,52.9851913z M160.9137421,52.9851913l-0.2713623,1.4924698
			l0.5427246-0.9497604c0.1356812-0.2713585,0.271347-0.5427208,0.5427246-0.5427208
			C161.727829,52.9851799,160.9137421,52.9851799,160.9137421,52.9851913z"/>
	</g>
	<g>
		<path class="st0" d="M168.6474609,58.5480461L168.6474609,58.5480461c0.271347-0.1356812,0.6783905-0.2713623,0.5427094-0.6783981
			l-0.4070435-0.9497604h-2.1708679l-0.2713318,0.6783981c-0.2713623,0.8140717,0,0.9497604,0.4070435,0.9497604l0,0h-1.4924774l0,0
			c0.4070435,0,0.6783905-0.2713623,0.9497528-0.9497604l1.4924622-3.9347076
			c-0.1356812-0.4070358-0.2713623-0.6783981-0.6784058-0.6783981l0,0l0,0h1.4924774l1.7638397,4.8844604
			c0.1356812,0.4070358,0.271347,0.6783943,0.8140717,0.6783943l0,0
			C171.0896912,58.5480347,168.6474609,58.5480347,168.6474609,58.5480461z M168.7831421,56.7842102l-1.085434-2.9849472
			l-1.0854492,2.9849472H168.7831421z"/>
		<path class="st0" d="M171.0896912,58.6837196h-2.5779114v-0.1356735l0,0c0.271347,0,0.4070435-0.1356812,0.4070435-0.2713623
			c0-0.1356773,0-0.1356773,0-0.2713585l-0.4070435-0.9497604h-2.1708527l-0.2713623,0.6783981
			c-0.1356812,0.2713623-0.1356812,0.5427208,0,0.6783943c0,0.1356773,0.1356812,0.1356773,0.4070435,0.1356773l0,0v0.1356812
			h-1.6281586v-0.1356812l0,0c0.2713623,0,0.5427246-0.1356773,0.8140869-0.9497528l1.4924774-3.7990227
			c-0.1356812-0.4070396-0.2713623-0.5427208-0.5427246-0.5427208h0.4070129v-0.1356773v-0.1356812h1.6281586l1.7638397,4.8844604
			c0.1356659,0.4070358,0.271347,0.542717,0.6783905,0.542717l0,0V58.6837196z M169.0545044,58.5480461h1.6281433
			c-0.271347-0.1356812-0.271347-0.2713623-0.4070435-0.5427208l-1.7638397-4.8844566h-1.085434
			c0.1356812,0.1356735,0.271347,0.2713547,0.4070435,0.542717l0,0l1.4924774,4.2060623c0,0.1356773,0,0.2713585,0,0.4070358
			C169.1901703,58.412365,169.0545044,58.412365,169.0545044,58.5480461z M165.6625214,58.5480461h0.6784058l-0.1356812-0.1356812
			c-0.1356812-0.1356773-0.1356812-0.2713585,0-0.542717C165.9338837,58.1410065,165.7982025,58.412365,165.6625214,58.5480461z
			 M166.7479706,56.6485291h1.8994904l-0.9497528-2.7135887L166.7479706,56.6485291z"/>
	</g>
	<g>
		<path class="st0" d="M175.0243988,57.869648l0.8140869-1.2211189l0,0l-0.2713623,2.0351906h-4.0703888l0,0
			c0.4070435,0,0.6784058-0.1356735,0.6784058-0.6783943V53.799263c0-0.5427208-0.2713623-0.6783943-0.6784058-0.6783943l0,0
			h2.3065491l0,0c-0.4070435,0-0.6783905,0.1356735-0.6783905,0.6783943v4.7487831h0.9497528
			C174.4816895,58.412365,174.7530365,58.2766838,175.0243988,57.869648z"/>
		<path class="st0" d="M175.5671234,58.6837196h-4.2060699v-0.1356735l0,0c0.4070435,0,0.5427246-0.1356812,0.5427246-0.5427208
			V53.799263c0-0.4070396-0.2713623-0.5427208-0.5427246-0.5427208l0,0v-0.1356735h2.4422302l0,0l0,0
			c-0.4070435,0-0.5427246,0.1356735-0.5427246,0.542717v4.7487793h0.9497681c0.2713623,0,0.5427094-0.1356773,0.8140869-0.6783943
			l0,0l0.8140869-1.2211189h0.1356812L175.5671234,58.6837196z M174.345993,58.5480461h1.0854492l0.271347-1.7638359
			l-0.6783905,1.0854378C174.8887177,58.1410065,174.6173706,58.412365,174.345993,58.5480461z M171.9037628,58.5480461h1.2211304
			V53.799263c0-0.4070396,0.1356659-0.5427208,0.271347-0.6783943h-1.4924774
			c0.1356812,0.1356735,0.2713623,0.2713547,0.2713623,0.6783943v4.2060623
			C172.1751404,58.2766838,172.039444,58.412365,171.9037628,58.5480461z"/>
	</g>
	<g>
		<path class="st0" d="M180.3158875,57.869648l0.6784058-0.9497604l0,0l-0.2713623,1.7638321h-4.2060547l0,0
			c0.4070435,0,0.6784058-0.1356735,0.6784058-0.6783943V53.799263c0-0.5427208-0.2713623-0.6783943-0.6784058-0.6783943l0,0
			h4.2060547l0.2713623,1.6281509l0,0l-0.6784058-0.8140755c-0.271347-0.407032-0.5427094-0.6783943-0.9497528-0.6783943H178.14505
			v2.4422302h0.8140869c0.6783752,0,0.9497375-0.4070396,0.9497375-0.9497604l0,0v2.0351906l0,0
			c-0.1356964-0.5427208-0.2713623-0.9497528-0.9497375-0.9497528H178.14505v2.8492622h1.356781
			C179.9088593,58.412365,180.0445404,58.1410065,180.3158875,57.869648z"/>
		<path class="st0" d="M180.8586121,58.6837196h-4.477417v-0.1356735l0,0c0.4070435,0,0.5426941-0.1356812,0.5426941-0.5427208
			V53.799263c0-0.4070396-0.2713623-0.5427208-0.5426941-0.5427208l0,0v-0.1356735h4.3417206l0.2713623,1.7638283h-0.1356964
			l-0.8140869-0.9497566c-0.271347-0.2713623-0.4070282-0.5427208-0.8140717-0.5427208h-1.0854492v2.3065491h0.8140869
			c0.6784058,0,0.8140869-0.2713547,0.9497528-0.8140717l0,0h0.1356812v2.1708679h-0.1356812l0,0
			c-0.1356812-0.5427208-0.271347-0.9497566-0.9497528-0.9497566h-0.8140869v2.7135887h1.2211151
			c0.4070435,0,0.5427094-0.2713623,0.8140869-0.6783943l0,0l0.8140869-0.9497604h0.1356812L180.8586121,58.6837196z
			 M179.7731628,58.5480461h1.0854492l0.271347-1.4924736l-0.6783905,0.8140755
			C180.1802063,58.1410065,180.0445404,58.412365,179.7731628,58.5480461z M176.9239197,58.5480461h1.2210999v-5.4271774h-1.2210999
			c0.1356812,0.1356735,0.2713623,0.2713547,0.2713623,0.6783943v4.2060623
			C177.195282,58.2766838,177.0595703,58.412365,176.9239197,58.5480461z M179.2304535,55.5630951
			c0.4070435,0,0.5427094,0.2713623,0.6784058,0.542717V54.884697
			C179.9088593,55.2917366,179.6374969,55.5630951,179.2304535,55.5630951z M179.5018158,52.9851913
			c0.271347,0.1356773,0.4070435,0.2713585,0.6783905,0.5427208l0.1356812,0.1356735l0.5427246,0.6783981l-0.2713623-1.3567924
			H179.5018158z"/>
	</g>
	<g>
		<path class="st0" d="M184.1149292,52.9851913h2.5778961c1.7638245,0,2.9849396,1.0854301,2.9849396,2.8492661
			c0,1.7638283-1.2211151,2.8492622-2.9849396,2.8492622h-2.5778961l0,0c0.4070435,0,0.6783905-0.1356735,0.6783905-0.6783943
			V53.799263C184.7933197,53.2565422,184.5219574,53.1208687,184.1149292,52.9851913L184.1149292,52.9851913z
			 M185.7430725,53.1208687v5.4271774h0.8140869c1.2211151,0,2.035202-0.8140755,2.035202-2.7135887
			c0-1.8995171-0.8140869-2.7135887-2.035202-2.7135887H185.7430725z"/>
		<path class="st0" d="M186.5571442,58.6837196h-2.5779114v-0.1356735l0,0c0.4070435,0,0.5427246-0.1356812,0.5427246-0.5427208
			V53.799263c0-0.4070396-0.2713623-0.5427208-0.5427246-0.5427208l0,0v-0.1356735h2.5779114
			c1.8994904,0,3.1206207,1.0854301,3.1206207,2.8492622C189.6777649,57.4626083,188.4566498,58.6837196,186.5571442,58.6837196z
			 M184.5219574,58.5480461h1.2210999v-5.4271774h-1.2210999c0.1356812,0.1356735,0.271347,0.2713547,0.271347,0.6783943v4.2060623
			C184.7933197,58.2766838,184.6576385,58.412365,184.5219574,58.5480461z M187.0998688,53.1208687
			c1.2210999,0.2713547,1.4924927,1.6281509,1.4924927,2.7135887c0,1.0854301-0.2713623,2.4422264-1.4924927,2.7135887
			c1.4924927-0.1356812,2.4422302-1.2211189,2.4422302-2.7135887
			C189.542099,54.3419838,188.5923309,53.2565422,187.0998688,53.1208687z M185.7430725,58.412365h0.8140869
			c1.2211151,0,1.8994904-0.8140755,1.8994904-2.5779076c0-1.7638359-0.6783752-2.5779152-1.8994904-2.5779152h-0.8140869V58.412365
			z"/>
	</g>
	<g>
		<path class="st0" d="M190.4918518,58.5480461L190.4918518,58.5480461
			c0.4070435-0.1356812,0.6783905-0.2713623,0.6783905-0.6783981v-4.2060623c0-0.542717-0.271347-0.6783943-0.6783905-0.6783943l0,0
			h2.3065491l0,0c-0.4070435,0-0.6784058,0.1356773-0.6784058,0.6783943v4.2060623
			c0,0.542717,0.2713623,0.6783981,0.6784058,0.6783981l0,0H190.4918518z"/>
		<path class="st0" d="M192.7984009,58.6837196h-2.4422455v-0.1356735l0,0c0.4070435,0,0.5427246-0.1356812,0.5427246-0.5427208
			V53.799263c0-0.4070396-0.2713623-0.5427208-0.5427246-0.5427208l0,0v-0.1356735h2.4422455l0,0l0,0
			c-0.4070435,0-0.5427094,0.1356735-0.5427094,0.542717v4.2060623c0,0.4070358,0.271347,0.542717,0.5427094,0.542717l0,0
			V58.6837196z M190.8988953,58.5480461h1.4924774c-0.1356812-0.1356812-0.271347-0.2713623-0.271347-0.6783981v-4.2060623
			c0-0.4070358,0.1356812-0.542717,0.271347-0.6783943h-1.4924774c0.1356812,0.1356773,0.271347,0.2713585,0.271347,0.6783943
			v4.2060623C191.1702423,58.2766838,191.0345612,58.412365,190.8988953,58.5480461z"/>
	</g>
	<g>
		<path class="st0" d="M199.4466705,58.6837196l-2.5778809-6.1055717l-0.4070435,4.613102
			c-0.1356812,0.9497566,0.271347,1.2211151,0.8140869,1.3567963l0,0h-1.7638397l0,0
			c0.5427094,0,0.8140869-0.2713623,0.8140869-1.3567963l0.4070435-4.8844566v-0.1356773
			c-0.1356964-0.4070396-0.4070435-0.5427208-0.6784058-0.5427208l0,0h1.8995056l2.0351868,5.2914963l1.8995056-5.2914963h1.8995056
			l0,0c-0.5427094,0-0.8140869,0.2713585-0.8140869,0.8140755l0.4070435,5.2915001
			c0,0.542717,0.2713623,0.8140755,0.8140869,0.8140755l0,0h-2.8492737l0,0c0.5427094,0,0.8140717-0.2713623,0.8140717-0.8140755
			l-0.4070435-5.4271774L199.4466705,58.6837196L199.4466705,58.6837196z"/>
		<path class="st0" d="M199.4466705,58.6837196h-0.1356812l-2.442215-5.8342133l-0.2713623,4.3417435
			c-0.1356812,1.085434,0.4070435,1.2211151,0.8140869,1.2211151l0,0v0.1356812h-1.8995056V58.412365l0,0
			c0.4070435,0,0.6783905-0.2713585,0.8140869-1.2211151l0.4070435-4.8844566v-0.1356773
			c-0.1356964-0.4070396-0.4070435-0.5427208-0.6784058-0.5427208l0,0v-0.1356773h2.035202l2.0351715,5.1558151l1.7638397-5.1558151
			h2.035202v0.2713547l0,0c-0.5427246,0-0.8140869,0.2713585-0.8140869,0.6783981l0.4070435,5.2915001
			c0,0.542717,0.271347,0.6783943,0.8140717,0.8140755l0,0v0.1356735h-2.9849396v-0.1356735l0,0
			c0.5427094,0,0.8140869-0.2713623,0.8140869-0.6783981l-0.4070435-5.0201416L199.4466705,58.6837196z M196.8687897,52.3067932
			l2.5778809,6.2412529l0.5427246-1.4924736l-2.1708832-5.2915001h-1.4924927
			C196.4617462,51.7640724,196.7330933,51.8997498,196.8687897,52.3067932L196.8687897,52.3067932L196.8687897,52.3067932z
			 M201.7532501,58.5480461h2.0351868c-0.271347-0.1356812-0.4070435-0.2713623-0.5427094-0.8140755l-0.4070435-5.2915001
			c0-0.5427208,0.1356812-0.6783981,0.4070435-0.8140755h-1.4924774l-0.1356964,0.2713585l0.4070435,5.6985359
			C202.2959595,58.1410065,202.0245972,58.412365,201.7532501,58.5480461z M195.9190369,58.5480461h1.085434
			c-0.4070435-0.1356812-0.5427094-0.5427208-0.5427094-1.0854378
			C196.3260803,58.0053253,196.1903839,58.2766838,195.9190369,58.5480461z"/>
	</g>
	<g>
		<path class="st0" d="M208.6728973,52.9851913L208.6728973,52.9851913h1.356781l0,0
			c-0.4070435,0-0.6784058,0.2713585-0.6784058,0.9497528v2.5779114c0,1.4924736-0.8140869,2.0351944-1.8994904,2.0351944
			c-1.085434,0-2.0351868-0.5427208-2.0351868-1.8995171v-3.1206207c0-0.5427208-0.2713623-0.6783981-0.6784058-0.6783981l0,0
			h2.3065491l0,0c-0.4070435,0-0.6783905,0.1356773-0.6783905,0.6783981v3.1206207
			c0,0.9497566,0.5427094,1.4924736,1.4924774,1.4924736c0.8140869,0,1.4924774-0.5427208,1.4924774-1.7638321V53.799263
			C209.3512726,53.2565422,209.0799408,53.1208687,208.6728973,52.9851913z"/>
		<path class="st0" d="M207.5874481,58.6837196c-1.085434,0-2.1708679-0.542717-2.1708679-1.8995132V53.663578
			c0-0.4070358-0.1356964-0.542717-0.5427246-0.542717l0,0v-0.1356812h2.4422455v0.1356888l0,0
			c-0.4070435,0-0.5427094,0.1356735-0.5427094,0.542717v3.1206245c0,0.9497604,0.5427094,1.4924736,1.3567963,1.4924736
			s1.3567963-0.6783981,1.3567963-1.7638321v-2.5779114c0-0.6783981-0.2713623-0.8140717-0.5427094-0.9497604l0,0v-0.1356735
			h1.4924774v0.2713623l0,0c-0.4070435,0-0.5427094,0.1356735-0.5427094,0.9497528v2.5779114
			C209.4869843,57.869648,208.8085785,58.6837196,207.5874481,58.6837196z M205.280899,52.9851913
			c0.1356964,0.1356773,0.2713623,0.2713585,0.2713623,0.6783943v3.1206245c0,1.3567963,1.085434,1.7638359,2.0351868,1.7638359
			c0.4070435,0,0.6784058-0.1356812,0.9497375-0.2713623c-0.1356812,0.1356735-0.4070435,0.1356735-0.6783752,0.1356735
			c-0.9497528,0-1.4924774-0.6783943-1.4924774-1.6281509V53.663578c0-0.4070358,0.1356812-0.542717,0.271347-0.6783981
			C206.6376801,52.9851799,205.280899,52.9851799,205.280899,52.9851913z M209.0799408,52.9851913
			c0.1356812,0.1356773,0.2713318,0.2713585,0.2713318,0.6783943c0-0.4070358,0.1357117-0.542717,0.4070435-0.6783943H209.0799408z"
			/>
	</g>
	<g>
		<path class="st0" d="M210.9794312,56.5128517L210.9794312,56.5128517
			c0.9497528,1.4924736,1.3567963,1.8995132,2.1708832,1.8995132s1.085434-0.542717,1.085434-1.2211151
			c0-0.5427208-0.271347-0.9497604-0.9497528-1.0854378l-0.9497528-0.2713547
			c-0.8140869-0.2713623-1.3567963-0.8140755-1.3567963-1.4924736c0-0.9497604,0.9497528-1.4924698,1.8995056-1.4924698
			c0.8140869,0,1.3567963,0.1356773,1.8995056,0.4070358l-0.1356812,1.4924698l0,0
			c-0.6784058-1.3567963-0.9497528-1.6281509-1.7638397-1.6281509c-0.6784058,0-1.2211151,0.407032-1.2211151,0.9497528
			s0.2713623,0.8140755,0.9497528,1.0854378l0.9497528,0.2713585c0.9497528,0.2713623,1.4924927,0.8140717,1.4924927,1.6281548
			c0,0.9497566-0.8140869,1.7638283-1.8995056,1.7638283c-0.8140869,0-1.4924927-0.2713547-2.3065491-0.542717
			L210.9794312,56.5128517z"/>
		<path class="st0" d="M213.2859955,58.6837196c-0.8140869,0-1.4924774-0.1356735-2.3065491-0.542717l0,0l0.1356812-1.6281586
			h0.1357117l0,0c0.8140869,1.4924774,1.2210846,1.8995132,2.0351715,1.8995132s1.0854492-0.542717,1.0854492-1.0854301
			c0-0.5427208-0.2713623-0.9497604-0.9497528-1.0854378l-0.9497375-0.2713585
			c-0.8140869-0.2713623-1.3567963-0.8140717-1.3567963-1.6281548c0-1.085434,0.9497528-1.6281509,2.0351715-1.6281509
			c0.6784058,0,1.3567963,0.1356735,2.035202,0.4070358l0,0l-0.1356964,1.4924736h-0.1356812l0,0
			c-0.6784058-1.3567963-0.9497528-1.6281586-1.6281586-1.6281586c-0.6783905,0-1.085434,0.2713623-1.085434,0.8140755
			c0,0.5427208,0.271347,0.8140755,0.9497528,0.9497604l0.9497528,0.2713585
			c0.9497528,0.2713623,1.4924774,0.8140717,1.4924774,1.6281548
			C215.1855011,58.0053253,214.3714142,58.6837196,213.2859955,58.6837196z M210.9794312,58.0053253
			c0.5427094,0.2713585,1.085434,0.5427208,1.6281433,0.5427208c-0.5427094-0.1356812-0.9497528-0.6783981-1.6281433-1.7638359
			V58.0053253z M212.2005615,53.1208687c-0.6784058,0.1356735-1.2211151,0.6783943-1.2211151,1.3567924
			s0.4070435,1.2211189,1.2211151,1.4924698l0.9497528,0.2713585c0.6783905,0.1356773,1.085434,0.5427208,1.085434,1.2211189
			c0,0.4070396-0.1356812,0.9497566-0.6783905,1.0854378c0.8140869-0.1356812,1.3567963-0.8140755,1.3567963-1.6281586
			c0-0.6783981-0.5427094-1.2211189-1.3567963-1.4924698l-0.9497528-0.2713585
			c-0.6784058-0.1356773-0.9497528-0.5427208-0.9497528-1.0854378
			C211.6578217,53.5279007,211.9291992,53.2565422,212.2005615,53.1208687z M213.4216614,52.9851913
			c0.5427094,0.1356773,0.8140869,0.5427208,1.3567963,1.4924698l0.1356964-1.2211189
			C214.3714142,53.1208687,213.8287048,52.9851913,213.4216614,52.9851913z"/>
	</g>
	<g>
		<path class="st0" d="M215.999588,58.5480461L215.999588,58.5480461c0.4070435-0.1356812,0.6784058-0.2713623,0.6784058-0.6783981
			v-4.2060623c0-0.542717-0.2713623-0.6783943-0.6784058-0.6783943l0,0h2.3065491l0,0
			c-0.4070435,0-0.6783905,0.1356773-0.6783905,0.6783943v4.2060623c0,0.542717,0.271347,0.6783981,0.6783905,0.6783981l0,0
			H215.999588z"/>
		<path class="st0" d="M218.3061371,58.6837196h-2.4422302v-0.1356735l0,0c0.4070435,0,0.5427094-0.1356812,0.5427094-0.5427208
			V53.799263c0-0.4070396-0.2713623-0.5427208-0.5427094-0.5427208l0,0v-0.1356735h2.4422302l0,0l0,0
			c-0.4070435,0-0.5427094,0.1356735-0.5427094,0.542717v4.2060623c0,0.4070358,0.2713623,0.542717,0.5427094,0.542717l0,0
			V58.6837196z M216.4066162,58.5480461h1.4924774c-0.1356812-0.1356812-0.271347-0.2713623-0.271347-0.6783981v-4.2060623
			c0-0.4070358,0.1356812-0.542717,0.271347-0.6783943h-1.4924774c0.1356812,0.1356773,0.271347,0.2713585,0.271347,0.6783943
			v4.2060623C216.6779938,58.2766838,216.5422974,58.412365,216.4066162,58.5480461z"/>
	</g>
	<g>
		<path class="st0" d="M219.1202087,55.6987801c0-1.7638359,1.2210846-2.8492661,2.7135773-2.8492661
			c0.8140869,0,1.4924774,0.2713585,1.8995056,0.542717l-0.4070435,1.3567924l0,0
			c-0.5427094-1.3567924-0.6784058-1.7638283-1.4924774-1.7638283c-0.8140869,0-1.6281586,0.6783981-1.6281586,2.4422264
			c0,1.6281548,0.9497528,2.4422302,1.8995056,2.4422302c0.6784058,0,1.3567963-0.2713623,1.7638397-1.3567963l0,0
			c-0.1356812,1.2211189-0.9497528,2.0351944-2.1708832,2.0351944
			C220.2056274,58.6837196,219.1202087,57.4626083,219.1202087,55.6987801z"/>
		<path class="st0" d="M221.6981201,58.6837196c-1.6281433,0-2.7135773-1.2211151-2.7135773-2.984951
			c0-1.4924698,0.9497528-2.8492622,2.8492584-2.8492622c0.6783905,0,1.4924774,0.1356735,1.8995056,0.542717l0,0
			l-0.4070435,1.4924736h-0.1356812l0,0c-0.5427094-1.3567963-0.6784058-1.7638283-1.4924927-1.7638283
			s-1.6281433,0.6783943-1.6281433,2.3065491s0.9497528,2.3065529,1.7638397,2.3065529s1.3567963-0.4070396,1.6281433-1.3567963l0,0
			h0.1356964l0,0C223.7333069,57.869648,222.91922,58.6837196,221.6981201,58.6837196z M221.4267578,52.9851913
			c-1.0854187,0.1356773-2.1708679,1.0854301-2.1708679,2.7135887c0,1.6281509,1.0854492,2.8492661,2.5778961,2.8492661
			c0.9497528,0,1.7638397-0.5427208,2.0351868-1.4924736c-0.271347,0.6783981-0.8140869,0.9497566-1.6281433,0.9497566
			c-0.9497528,0-1.8994904-0.8140755-1.8994904-2.5779114C220.0699768,54.0706215,220.7483826,53.2565422,221.4267578,52.9851913z
			 M222.2408295,52.9851913c0.5427094,0.1356773,0.6783905,0.6783943,1.085434,1.6281509l0.2713623-1.2211189
			C223.3262634,53.2565422,222.7835541,52.9851913,222.2408295,52.9851913z"/>
	</g>
	<g>
		<path class="st0" d="M227.3966522,58.5480461L227.3966522,58.5480461
			c0.2713623-0.1356812,0.6784058-0.2713623,0.5427094-0.6783981l-0.4070435-0.9497604h-2.1708527l-0.2713623,0.6783981
			c-0.2713623,0.8140717,0,0.9497604,0.4070435,0.9497604l0,0h-1.4924774l0,0c0.4070435,0,0.6783905-0.2713623,0.9497528-0.9497604
			l1.4924774-3.9347076c-0.1356812-0.4070358-0.2713623-0.6783981-0.6783905-0.6783981l0,0l0,0h1.4924774l1.7638397,4.8844604
			c0.1356812,0.4070358,0.271347,0.6783943,0.8140869,0.6783943l0,0
			C229.838913,58.5480347,227.3966522,58.5480347,227.3966522,58.5480461z M227.5323334,56.7842102l-1.085434-2.9849472
			l-1.085434,2.9849472H227.5323334z"/>
		<path class="st0" d="M229.9745636,58.6837196h-2.5779114v-0.1356735l0,0c0.2713623,0,0.4070435-0.1356812,0.4070435-0.2713623
			c0-0.1356773,0-0.1356773,0-0.2713585l-0.4070435-0.9497604h-2.1708832l-0.271347,0.6783981
			c-0.1356964,0.2713623-0.1356964,0.5427208,0,0.6783943c0,0.1356773,0.1356812,0.1356773,0.4070435,0.1356773l0,0v0.1356812
			h-1.3567963v-0.1356812l0,0c0.271347,0,0.5427094-0.1356773,0.8140717-0.9497528l1.4924927-3.7990227
			c-0.1356964-0.4070396-0.2713623-0.5427208-0.5427094-0.5427208h-0.1356964v-0.1356773v-0.1356812h1.6281586l1.7638397,4.8844604
			c0.1356812,0.4070358,0.271347,0.542717,0.6783905,0.542717l0,0v0.2713623H229.9745636z M227.8036957,58.5480461h1.6281586
			c-0.2713623-0.1356812-0.2713623-0.2713623-0.4070435-0.5427208l-1.7638397-4.8844566h-1.0854492
			c0.1356964,0.1356735,0.2713623,0.2713547,0.4070435,0.542717l0,0l1.4924927,4.2060623c0,0.1356773,0,0.2713585,0,0.4070358
			C227.9393616,58.412365,227.9393616,58.412365,227.8036957,58.5480461z M224.4117126,58.5480461h0.6783905l-0.1356812-0.1356812
			c-0.1356964-0.1356773-0.1356964-0.2713585,0-0.542717C224.8187408,58.1410065,224.6830597,58.412365,224.4117126,58.5480461z
			 M225.4971466,56.6485291h1.8995056l-0.9497528-2.7135887L225.4971466,56.6485291z"/>
	</g>
	<g>
		<path class="st0" d="M232.1454315,52.9851913h2.5778961c1.7638397,0,2.9849548,1.0854301,2.9849548,2.8492661
			c0,1.7638283-1.2211151,2.8492622-2.9849548,2.8492622h-2.5778961l0,0c0.4070282,0,0.6783905-0.1356735,0.6783905-0.6783943
			V53.799263C232.823822,53.2565422,232.5524597,53.1208687,232.1454315,52.9851913L232.1454315,52.9851913z
			 M233.7735748,53.1208687v5.4271774h0.8140869c1.2211151,0,2.0351868-0.8140755,2.0351868-2.7135887
			c0-1.8995171-0.8140717-2.7135887-2.0351868-2.7135887H233.7735748z"/>
		<path class="st0" d="M234.5876617,58.6837196h-2.5779114v-0.1356735l0,0c0.4070435,0,0.5427094-0.1356812,0.5427094-0.5427208
			V53.799263c0-0.4070396-0.271347-0.5427208-0.5427094-0.5427208l0,0v-0.1356735h2.5779114
			c1.8995056,0,3.120636,1.0854301,3.120636,2.8492622C237.7082977,57.4626083,236.4871674,58.6837196,234.5876617,58.6837196z
			 M232.5524597,58.5480461h1.2211151v-5.4271774h-1.2211151c0.1356964,0.1356735,0.2713623,0.2713547,0.2713623,0.6783943
			v4.2060623C232.823822,58.2766838,232.6881409,58.412365,232.5524597,58.5480461z M235.1303711,53.1208687
			c1.2211151,0.2713547,1.4924774,1.6281509,1.4924774,2.7135887c0,1.0854301-0.271347,2.4422264-1.4924774,2.7135887
			c1.4924774-0.1356812,2.4422302-1.2211189,2.4422302-2.7135887
			C237.5726013,54.3419838,236.6228485,53.2565422,235.1303711,53.1208687z M233.7735748,58.412365h0.8140869
			c1.2211151,0,1.8995056-0.8140755,1.8995056-2.5779076c0-1.7638359-0.6783905-2.5779152-1.8995056-2.5779152h-0.8140869V58.412365
			z"/>
	</g>
	<g>
		<path class="st0" d="M238.5223694,58.5480461L238.5223694,58.5480461
			c0.4070282-0.1356812,0.6783905-0.2713623,0.6783905-0.6783981v-4.2060623c0-0.542717-0.2713623-0.6783943-0.6783905-0.6783943
			l0,0h2.3065491l0,0c-0.4070435,0-0.6784058,0.1356773-0.6784058,0.6783943v4.2060623
			c0,0.542717,0.2713623,0.6783981,0.6784058,0.6783981l0,0H238.5223694z"/>
		<path class="st0" d="M240.8289185,58.6837196h-2.4422455v-0.1356735l0,0c0.4070435,0,0.5427094-0.1356812,0.5427094-0.5427208
			V53.799263c0-0.4070396-0.271347-0.5427208-0.5427094-0.5427208l0,0v-0.1356735h2.4422455l0,0l0,0
			c-0.4070435,0-0.5427246,0.1356735-0.5427246,0.542717v4.2060623c0,0.4070358,0.2713623,0.542717,0.5427246,0.542717l0,0
			V58.6837196z M238.7937164,58.5480461h1.4924774c-0.1356812-0.1356812-0.271347-0.2713623-0.271347-0.6783981v-4.2060623
			c0-0.4070358,0.1356812-0.542717,0.271347-0.6783943h-1.4924774c0.1356812,0.1356773,0.2713623,0.2713585,0.2713623,0.6783943
			v4.2060623C239.2007599,58.2766838,239.065094,58.412365,238.7937164,58.5480461z"/>
	</g>
	<g>
		<path class="st0" d="M243.6781769,58.5480461L243.6781769,58.5480461
			c0.5427094-0.1356812,0.8140869-0.2713623,0.8140869-0.8140755v-5.2915001c0-0.5427208-0.2713623-0.8140755-0.8140869-0.8140755
			l0,0h3.391983c1.4924927,0,2.7135925,0.6783981,2.7135925,1.7638283c0,1.0854378-1.085434,1.7638359-2.5778961,1.7638359
			h-0.4070435l1.3567963,0.2713585l1.2210999,2.1708679c0.2713623,0.4070396,0.5427246,0.8140717,1.0854492,0.8140717l0,0h-2.035202
			l-1.8995056-3.391983h-0.8140869v2.4422302c0,0.5427208,0.2713623,0.8140717,0.8140869,0.8140717l0,0h-2.8492737V58.5480461z
			 M245.7133636,51.7640724v3.3919868h1.0854492c0.9497528,0,1.6281433-0.5427208,1.6281433-1.6281586
			c0-1.2211113-0.6783905-1.6281509-1.6281433-1.6281509h-1.0854492V51.7640724z"/>
		<path class="st0" d="M250.4621582,58.6837196h-2.035202l-1.8995056-3.391983h-0.6783905v2.4422264
			c0,0.5427208,0.271347,0.6783943,0.6783905,0.8140717l0,0v0.1356812h-2.9849396v-0.1356812l0,0
			c0.4070435,0,0.8140869-0.1356773,0.8140869-0.8140717v-5.2914963c0-0.5427208-0.2713623-0.6783981-0.8140869-0.8140755l0,0
			v-0.1356812h3.5276794c1.6281433,0,2.7135925,0.8140793,2.7135925,1.8995132c0,1.0854378-0.9497528,1.8995171-2.4422455,1.8995171
			l0.8140869,0.1356773l0,0l1.2211151,2.1708679c0.271347,0.5427208,0.5427094,0.6783981,0.9497528,0.8140717l0,0v0.2713623
			H250.4621582z M248.5626526,58.5480461h1.6281433c-0.271347-0.1356812-0.5427094-0.4070396-0.8140869-0.8140755
			l-1.2210999-2.1708717l-1.3567963-0.2713585L248.5626526,58.5480461z M244.0852203,58.5480461h2.0351868
			c-0.271347-0.1356812-0.4070435-0.2713623-0.4070435-0.8140755v-5.9698982h-1.6281433
			c0.271347,0.1356773,0.4070435,0.2713585,0.4070435,0.8140755v5.2915001
			C244.6279297,58.1410065,244.3565674,58.412365,244.0852203,58.5480461z M247.0701599,55.1560593h0.1356964
			c1.4924774,0,2.4422302-0.6783981,2.4422302-1.7638359c0-1.0854301-1.085434-1.7638283-2.5778961-1.7638283h-0.0000305
			c0.9497528,0.1356773,1.6281586,0.6783981,1.6281586,1.7638283
			C248.6983185,54.4776611,248.1556091,55.0203819,247.0701599,55.1560593z M245.8490601,55.0203819h1.085434
			c1.0854492,0,1.6281586-0.5427208,1.6281586-1.6281586c0-1.3567924-0.8140869-1.6281509-1.6281586-1.6281509h-1.085434V55.0203819
			z"/>
	</g>
	<g>
		<path class="st0" d="M256.2963867,55.8344574c0,1.7638283-1.0854645,2.8492622-2.5779266,2.8492622
			s-2.5778809-1.085434-2.5778809-2.8492622c0-1.7638359,1.085434-2.8492661,2.5778809-2.8492661
			C255.2109222,52.8495064,256.2963867,53.9349403,256.2963867,55.8344574z M252.2259979,55.8344574
			c0,2.0351906,0.5426941,2.7135887,1.4924622,2.7135887c0.9497528,0,1.4924927-0.8140755,1.4924927-2.7135887
			c0-2.0351944-0.5427246-2.7135887-1.4924927-2.7135887C252.768692,52.9851913,252.2259979,53.799263,252.2259979,55.8344574z"/>
		<path class="st0" d="M253.7184448,58.6837196c-1.6281586,0-2.7135773-1.2211151-2.7135773-2.984951
			c0-1.7638283,1.0854187-2.9849434,2.7135773-2.9849434c1.6281433,0,2.7135925,1.2211151,2.7135925,2.9849434
			C256.4320374,57.4626083,255.3466187,58.6837196,253.7184448,58.6837196z M254.1254883,52.9851913
			c0.6783905,0.2713585,1.085434,1.2211151,1.085434,2.7135887c0,1.4924698-0.4070435,2.5779076-1.085434,2.7135849
			c1.2210999-0.1356773,2.0351868-1.2211151,2.0351868-2.7135849
			C256.160675,54.2063065,255.4822845,53.2565422,254.1254883,52.9851913z M253.3114166,52.9851913
			c-1.2210846,0.1356773-2.0351715,1.2211151-2.0351715,2.7135887c0,1.4924698,0.8140869,2.5779076,2.0351715,2.7135849
			c-0.6783752-0.2713585-1.0854187-1.2211151-1.0854187-2.7135849
			C252.2259979,54.2063065,252.4973297,53.2565422,253.3114166,52.9851913z M253.7184448,53.1208687
			c-0.9497528,0-1.4924774,0.9497528-1.4924774,2.7135887c0,1.7638283,0.5427094,2.7135887,1.4924774,2.7135887
			c0.9497528,0,1.3567963-0.9497604,1.3567963-2.7135887C255.0752411,54.0706215,254.6682129,53.1208687,253.7184448,53.1208687z"/>
	</g>
	<g>
		<path class="st0" d="M260.0953979,58.6837196l-2.0351868-4.8844566l-0.2713623,3.6633453
			c0,0.8140755,0.2713623,1.0854378,0.6784058,1.0854378l0,0h-1.4924927l0,0c0.4070435,0,0.5426941-0.2713623,0.6784058-1.0854378
			l0.2713318-3.9347076v-0.1356773c-0.1356812-0.407032-0.4070435-0.407032-0.5426941-0.407032l0,0h1.4924927l1.6281433,4.2060585
			l1.4924622-4.2060585h1.4924927l0,0c-0.4070435,0-0.6784058,0.1356773-0.6784058,0.6783943l0.2713623,4.2060623
			c0,0.542717,0.2713623,0.6783981,0.6784058,0.6783981l0,0h-2.3065491l0,0c0.4070435,0,0.6784058-0.1356812,0.6784058-0.6783981
			l-0.2713623-4.3417473L260.0953979,58.6837196L260.0953979,58.6837196z"/>
		<path class="st0" d="M260.2310486,58.6837196h-0.1356812l-1.8995056-4.613102l-0.2713623,3.3919868
			c0,0.8140717,0.2713623,0.9497528,0.5427246,0.9497528l0,0v0.1356773h-1.6281433v-0.1356773l0,0
			c0.4070435,0,0.5426941-0.1356735,0.5426941-0.9497528l0.2713623-3.9347076l0,0
			c-0.1356812-0.2713585-0.2713623-0.4070358-0.5427246-0.4070358l0,0v-0.1356812h1.6281738l1.6281433,4.070385l1.4924927-4.070385
			h1.6281433v0.1356888l0,0c-0.4070435,0-0.6784058,0.2713547-0.5427246,0.542717l0.2713623,4.2060623
			c0,0.4070358,0.2713623,0.542717,0.5427246,0.542717l0,0v0.1356812h-2.4422302V58.412365l0,0
			c0.4070129,0,0.6783752-0.2713585,0.5426941-0.542717l-0.2713623-3.9347076L260.2310486,58.6837196z M258.0602112,53.5279007
			l2.0351868,4.8844566l0.4070435-1.2211151l-1.763855-4.2060623h-1.0854187
			C257.7888184,53.1208687,257.9244995,53.2565422,258.0602112,53.5279007L258.0602112,53.5279007L258.0602112,53.5279007z
			 M261.9949036,58.5480461h1.4924927c-0.1357117-0.1356812-0.2713623-0.2713623-0.2713623-0.6783981l-0.2713623-4.2060623
			c0-0.4070358,0.1356812-0.542717,0.2713623-0.6783943h-1.0854492l-0.1356812,0.2713585l0.2713623,4.613102
			C262.401947,58.2766838,262.2662659,58.412365,261.9949036,58.5480461z M257.3818054,58.5480461h0.6784058
			c-0.2713623-0.1356812-0.4070435-0.4070396-0.4070435-0.6783981
			C257.6531677,58.1410065,257.5174561,58.412365,257.3818054,58.5480461z"/>
	</g>
	<g>
		<path class="st0" d="M267.5577698,58.5480461L267.5577698,58.5480461
			c0.2713623-0.1356812,0.6784058-0.2713623,0.5427246-0.6783981l-0.4070435-0.9497604h-2.1708984l-0.2713623,0.6783981
			c-0.2713318,0.8140717,0,0.9497604,0.4070435,0.9497604l0,0h-1.4924622l0,0c0.4070435,0,0.6783752-0.2713623,0.9497375-0.9497604
			l1.4924927-3.9347076c-0.1356812-0.4070358-0.2713623-0.6783981-0.6784058-0.6783981l0,0l0,0h1.4924927l1.7638245,4.8844604
			c0.1357117,0.4070358,0.2713623,0.6783943,0.8140869,0.6783943l0,0C270,58.5480347,267.5577698,58.5480347,267.5577698,58.5480461
			z M267.6934509,56.7842102l-1.0854492-2.9849472l-1.0854492,2.9849472H267.6934509z"/>
		<path class="st0" d="M269.9999695,58.6837196h-2.5778809v-0.1356735l0,0c0.2713623,0,0.4070435-0.1356812,0.4070435-0.2713623
			c0-0.1356773,0-0.1356773,0-0.2713585l-0.4070435-0.9497604h-2.1708984l-0.2713318,0.6783981
			c-0.1357117,0.2713623-0.1357117,0.5427208,0,0.6783943c0,0.1356773,0.1356812,0.1356773,0.4070435,0.1356773l0,0v0.1356812
			h-1.6281738v-0.1356812l0,0c0.2713623,0,0.5427246-0.1356773,0.8140869-0.9497528l1.4924927-3.7990227
			c-0.1356812-0.4070396-0.2713623-0.5427208-0.5427246-0.5427208h-0.1356812v-0.1356773v-0.1356812h1.6281433l1.763855,4.8844604
			c0.1356812,0.4070358,0.2713623,0.542717,0.6784058,0.542717l0,0v0.2713623H269.9999695z M267.9647827,58.5480461h1.6281433
			c-0.2713623-0.1356812-0.2713623-0.2713623-0.4070435-0.5427208l-1.7638245-4.8844566h-1.0854187
			c0.1356812,0.1356735,0.2713318,0.2713547,0.4070435,0.542717l0,0l1.4924622,4.2060623c0,0.1356773,0,0.2713585,0,0.4070358
			C268.1004944,58.412365,267.9647827,58.412365,267.9647827,58.5480461z M264.5728149,58.5480461h0.6783752l-0.1356812-0.1356812
			c-0.1356812-0.1356773-0.1356812-0.2713585,0-0.542717C264.9798584,58.1410065,264.7084961,58.412365,264.5728149,58.5480461z
			 M265.6582336,56.6485291h1.8995056l-0.9497375-2.7135887L265.6582336,56.6485291z"/>
	</g>
</g>
<path class="st0" d="M46.1289558,38.0604515c0.1356773,0,0.1356773-0.1356812,0.1356773-0.2713623
	s-0.1356773-0.1356812-0.2713623-0.1356812 M45.9932709,37.6534119l-5.9698944,0.8140793
	c-0.2713585,0-0.2713585-0.2713623-0.2713585-0.2713623c0-0.542717,0-0.9497566,0-1.4924698c0-4.3417435,0-8.683485,0-13.0252266
	c0.1356812-4.2060623,2.3065529-5.6985359,6.2412529-4.6131001c2.0351906,0.542717,2.3065529,1.2211132,1.2211189,2.9849472
	c-0.4070358,0.6783981-0.8140755,1.3567944-0.9497566,2.1708736c-0.1356773,1.2211132,0.4070358,2.3065491,1.6281509,2.9849453
	c0.9497604,0.5427189,2.0351944,0.4070377,2.984951-0.4070358c0.9497566-0.8140774,1.3567963-1.8995113,0.9497566-3.1206264
	c-0.4070396-1.2211132-1.2211189-2.3065491-2.1708679-3.1206245c-2.0351906-1.6281528-4.2060585-2.306551-6.7839737-2.1708717
	c-4.8844566,0.1356792-8.8191605,3.7990227-8.8191605,8.6834831c0,3.9347019,0,7.8694038-0.1356773,11.8041115
	c0,0,0,0.2713585-0.2713623,0.2713585l-4.3417416,0.542717c-0.2713604,0-0.2713604-0.2713585-0.2713604-0.2713585l0,0
	c0-1.2211151,0-22.2514267,0-31.7489853c0-0.9497552,0-1.7638326,0-2.7135882
	c0.4070396-3.9347031,2.306551-5.2914972,6.1055756-4.2060614c2.1708679,0.5427175,2.4422264,1.2211145,1.3567924,3.1206262
	c-0.4070358,0.6783972-0.6783981,1.3567944-0.8140793,2.0351911c-0.1356773,1.2211146,0.4070396,2.3065491,1.4924736,2.9849463
	c1.0854378,0.5427189,2.0351944,0.4070387,2.984951-0.2713585s1.3567963-1.7638321,1.085434-2.9849463
	c-0.2713585-1.0854354-0.8140755-2.0351913-1.6281509-2.7135882c-2.5779076-2.4422297-5.5628586-3.5276649-9.0905209-2.577909
	c-4.0703831,1.0854354-7.3266888,3.6633444-7.1910095,9.0905209c0.1356812,4.2060614,0,8.5478048,0,12.7538633
	c0,5.9698944,0,11.9397888,0,17.9096794c0,0,0,0.2713623-0.2713604,0.2713623l-4.8844585,0.542717l0,0
	c-0.2713585,0-0.2713585-0.1356812-0.2713585-0.2713623c0-0.9497528,0-1.8995094,0-2.9849472c0-2.1708679,0-4.3417397,0-6.5126133
	c0-1.8995094,0-3.7990227,0-5.698534c0-1.7638321-0.6783962-3.3919868-1.8995113-4.7487812
	c-3.5276632-3.9347019-10.0402756-4.2060623-13.9749794-0.6783962c-0.9497557,0.8140774-1.6281528,1.7638321-1.8995116,2.9849472
	c-0.4070383,1.3567944,0.1356794,2.5779076,1.3567941,3.3919868c1.3567923,0.9497547,2.5779071,0.8140755,3.6633425-0.2713585
	c0.8140769-0.9497566,0.9497561-2.306551,0.271359-3.6633453c-0.271359-0.542717-0.6783972-1.085434-0.8140764-1.6281528
	c-0.4070382-0.9497547-0.1356792-1.4924736,0.8140764-1.8995094c0.9497557-0.4070396,1.8995123-0.5427189,2.849267-0.6783981
	c1.8995132-0.1356812,3.1206264,0.8140755,3.7990236,2.4422283c0.2713594,1.085434,0.2713594,2.0351925,0.2713594,3.1206264
	c0,4.7487793,0,9.4975605,0,14.2463398c0,1.2211151,0,2.3065491,0,3.5276642c0,0.1356812,0,0.2713623-0.2713594,0.2713623
	L6.917603,42.6735497c-0.1356797,0-0.1356797,0.1356773-0.1356797,0.2713585s0.1356797,0.1356812,0.2713585,0.1356812l0,0
	l5.155818-0.6783943l0,0c0.1356802,0,0.1356802,0.1356812,0.1356802,0.2713547c0,3.1206245,0,6.2412529,0,9.3618813
	c0,1.0854378,0,2.0351906-0.4070396,2.984951c-0.6783972,1.7638283-1.8995113,2.7135887-3.7990236,2.5779076
	c-0.8140764,0-1.7638326-0.2713585-2.577909-0.542717c-1.3567939-0.4070396-1.6281526-1.085434-0.9497557-2.4422302
	c0.4070382-0.6783981,0.8140769-1.3567924,1.0854354-2.1708679c0.2713585-1.3567963-0.1356797-2.5779114-1.2211151-3.3919868
	c-1.0854352-0.6783981-2.1708705-0.5427208-3.2563062,0.2713623c-1.0854353,0.8140755-1.3567941,2.0351906-0.8140765,3.391983
	c0.678397,1.7638321,2.0351913,2.8492661,3.6633439,3.9347038c5.0201387,3.1206284,14.6533785,0,14.1106596-8.1407661
	c-0.1356792-2.3065491-0.1356792-4.477417-0.1356792-6.7839661c0-0.1356812,0-0.2713623,0.2713585-0.2713623l0,0
	l4.8844566-0.6783981c0.2713604,0,0.2713604,0.2713623,0.2713604,0.2713623c0,5.8342133,0,11.6684265-0.1356792,17.3669662
	c0,3.3919868,0,6.7839699,0,10.1759529c0,1.085434-0.1356812,2.1708679-0.4070377,3.1206284
	c-0.6783962,1.6281509-1.7638321,2.4422302-3.5276661,2.4422302c-0.8140755,0-1.6281509-0.1356812-2.4422283-0.4070435
	c-1.763833-0.542717-2.0351915-1.085434-1.2211151-2.8492584c0.1356802-0.2713623,0.2713585-0.5427246,0.542717-0.8140793
	c0.2713585-0.4070358,0.4070377-0.9497604,0.542717-1.3567886c0.1356812-1.2211227-0.4070377-2.3065567-1.4924736-2.9849548
	c-0.9497557-0.542717-2.1708708-0.4070358-3.1206274,0.4070358c-0.9497547,0.8140793-1.2211142,1.8995209-0.8140755,3.1206284
	c0.2713575,0.9497604,0.8140755,1.7638321,1.4924726,2.5779114c3.3919868,3.391983,8.9548416,3.7990265,13.0252247,0.8140717
	c1.8995132-1.3567963,3.1206264-3.2563095,3.1206264-5.6985321c0.1356792-3.7990227,0.1356792-7.5980492,0.1356792-11.3970757
	c0-5.0201378,0-10.0402794,0-15.0604172c0-0.1356773,0-0.2713585,0.2713585-0.2713585l0,0l4.3417454-0.5427132
	c0.2713585,0,0.2713585,0.2713585,0.2713585,0.2713585l0,0l0,0l0,0l0,0l0,0c0,3.2563019,0,6.5126076,0,9.6332359
	c0,2.0351906,0.542717,3.9347076,1.8995094,5.5628548c3.6633492,4.2060585,10.4473152,4.3417397,14.3820229,0.5427208
	c0.8140717-0.8140793,1.3567924-1.6281586,1.6281509-2.7135887c0.2713623-1.0854378,0.1356773-2.1708679-0.8140755-2.8492661
	c-0.8140717-0.6783981-1.8995132-1.0854378-2.9849472-0.5427208c-1.085434,0.5427208-1.7638321,1.3567924-1.7638321,2.5779114
	c0,0.6783981,0.2713623,1.3567963,0.5427208,2.0351906c0.2713623,0.542717,0.5427208,0.9497566,0.8140755,1.4924736
	c0.4070358,0.9497528,0.1356735,1.4924698-0.8140755,1.8995094c-0.9497566,0.4070396-2.0351906,0.6783981-3.1206245,0.6783981
	c-1.7638321,0-2.984951-0.8140755-3.527668-2.5779076c-0.407032-0.9497604-0.407032-2.0351944-0.407032-3.1206284
	c0-4.477417,0-8.8191643,0-13.2965813l0,0c0,0,0-0.2713585,0.2713585-0.4070358l5.9698906-0.8140793 M23.4704914,40.9097176
	L23.4704914,40.9097176C23.4704914,41.0453987,23.4704914,41.0453987,23.4704914,40.9097176L23.4704914,40.9097176z
	 M29.1690273,40.2313194L29.1690273,40.2313194L29.1690273,40.2313194L29.1690273,40.2313194z"/>
</svg>
